<svg width="63" height="70" viewBox="0 0 63 70" fill="none" xmlns="http://www.w3.org/2000/svg">
<path d="M19.7242 6.91482C13.3875 10.5099 6.58596 14.3446 4.60421 15.471L1.0077 17.5082L0.958773 24.6983C0.909841 28.6528 0.860908 33.1826 0.836442 34.7644C0.811976 36.3462 0.860908 40.9479 0.934307 44.9983L1.0811 52.3322L4.40848 54.2016C6.24343 55.2082 8.61664 56.5504 9.69314 57.1735C10.7696 57.7966 16.1032 60.8165 21.5102 63.8842C29.951 68.6297 31.4679 69.4206 31.9083 69.2289C32.3731 69.0132 41.3277 63.9801 58.5028 54.2735L62.0504 52.2603V34.8842V17.5082L57.7689 15.0875C55.4201 13.7694 49.426 10.39 44.4349 7.58589C39.4683 4.75779 34.5506 2.00159 33.5475 1.42638C32.5444 0.851178 31.6147 0.371839 31.4679 0.395806C31.3456 0.395806 26.0364 3.31978 19.7242 6.91482ZM43.2361 12.2594C49.01 15.5189 54.5394 18.6347 55.4935 19.1619L57.2795 20.1446L57.2551 34.8842V49.6239L45.3646 56.3346C38.8322 60.0256 33.0093 63.2851 32.4465 63.5727L31.4434 64.076L23.125 59.4024C18.5743 56.814 12.8003 53.5545 10.3048 52.1404L5.77858 49.576V34.8842V20.1925L18.5988 12.9305C31.003 5.93217 31.4679 5.6925 32.0795 6.00407C32.4465 6.19581 37.4621 8.99994 43.2361 12.2594Z" fill="url(#paint0_linear_2304_3)"/>
<path d="M29.8043 9.50312L28.165 10.4618V20.6957L28.1895 30.9296L38.1961 36.7775L48.2272 42.6015V43.6081C48.2272 44.423 48.1048 44.6626 47.5421 44.9742C47.1751 45.1899 44.9243 46.5081 42.5511 47.9461L38.1961 50.5106V53.9858V57.437L39.6151 56.6701C40.3736 56.2387 44.0924 54.1296 47.8602 51.9965L54.7107 48.1378V43.2725V38.4073L44.753 32.9907L34.7709 27.5742V22.5891V17.6279L35.9452 18.275C36.5814 18.6585 39.6641 20.4081 42.7957 22.1816L48.4718 25.3932V28.6527V31.9122L51.3344 33.4461C52.9247 34.3089 54.3437 35.0279 54.5149 35.0759C54.7841 35.1478 54.833 33.8535 54.7841 28.3891L54.7107 21.6304L50.7961 19.4254C48.6431 18.2271 43.6276 15.399 39.6641 13.1461C35.7006 10.9172 32.2264 8.95188 31.9573 8.80808C31.5658 8.61634 31.1744 8.73618 29.8043 9.50312Z" fill="url(#paint1_linear_2304_3)"/>
<path d="M16.1032 17.2205L8.10284 21.7742L8.15177 26.5916L8.22517 31.385L14.464 34.9321C17.8892 36.8974 22.391 39.4139 24.4461 40.5643L28.165 42.6734V47.2751C28.165 49.8875 28.0671 51.9007 27.9448 51.9007C27.8225 51.9007 24.7397 50.223 21.0943 48.1619L14.464 44.399V41.3792V38.3354L11.5281 36.6098C9.91333 35.6751 8.4943 34.8842 8.3475 34.8842C8.05391 34.8842 8.00498 47.5627 8.29857 47.9462C8.39643 48.09 12.9226 50.7263 18.3786 53.7941C23.8345 56.8858 28.9968 59.8098 29.8776 60.2891C31.6392 61.2957 31.5658 61.3197 33.8656 59.8817L34.7708 59.3304V49.5519C34.7708 44.0395 34.6729 39.6536 34.5261 39.4379C34.4038 39.2461 29.8287 36.3941 24.3238 33.0866C14.5374 27.1668 14.3417 27.047 14.3417 26.28C14.3417 25.5371 14.5129 25.3933 19.3572 22.4693L24.3727 19.4015L24.4461 15.9982C24.4706 14.1288 24.4217 12.5949 24.3238 12.6189C24.2015 12.6428 20.5316 14.704 16.1032 17.2205Z" fill="url(#paint2_linear_2304_3)"/>
<defs>
<linearGradient id="paint0_linear_2304_3" x1="1" y1="35" x2="62" y2="33" gradientUnits="userSpaceOnUse">
<stop stop-color="white"/>
</linearGradient>
<linearGradient id="paint1_linear_2304_3" x1="30.5" y1="14" x2="57" y2="84" gradientUnits="userSpaceOnUse">
<stop stop-color="white"/>
</linearGradient>
<linearGradient id="paint2_linear_2304_3" x1="21.4361" y1="61.0078" x2="21" y2="-51.5" gradientUnits="userSpaceOnUse">
<stop offset="1" stop-color="white"/>
</linearGradient>
</defs>
</svg>
