<svg width="555" height="997" viewBox="0 0 555 997" fill="none" xmlns="http://www.w3.org/2000/svg">
<path d="M244.5 1012C353.764 1012 463.477 954.721 542.398 883.843C620.767 813.461 693 707.564 693 588C693 473.019 625.263 355.339 550.341 272.569C476.792 191.315 364.633 109 244.5 109C166.032 109 107.195 150.22 67.9831 196.925C30.0431 242.116 4.42569 298.707 -13.3499 352.121C-49.1024 459.554 -63 584.673 -63 670C-63 754.281 -49.7691 843.334 4.7497 911.741C63.8179 985.857 151.198 1012 244.5 1012Z" stroke="url(#paint0_linear_2191_256)" stroke-opacity="0.33" stroke-width="217"/>
<defs>
<linearGradient id="paint0_linear_2191_256" x1="-29.7039" y1="899.999" x2="265.842" y2="657.77" gradientUnits="userSpaceOnUse">
<stop stop-color="#FA00FF"/>
<stop offset="1" stop-color="#FA00FF" stop-opacity="0"/>
</linearGradient>
</defs>
</svg>
