<svg width="271" height="133" viewBox="0 0 271 133" fill="none" xmlns="http://www.w3.org/2000/svg">
<ellipse cx="5.962" cy="6.30603" rx="5.962" ry="6.30603" fill="#1C25FF" fill-opacity="0.25"/>
<ellipse cx="5.962" cy="46.4353" rx="5.962" ry="6.30603" fill="#1C25FF" fill-opacity="0.25"/>
<ellipse cx="5.962" cy="126.694" rx="5.962" ry="6.30603" fill="#1C25FF" fill-opacity="0.25"/>
<ellipse cx="5.962" cy="86.5647" rx="5.962" ry="6.30603" fill="#1C25FF" fill-opacity="0.25"/>
<ellipse cx="57.994" cy="6.30603" rx="5.962" ry="6.30603" fill="#1C25FF" fill-opacity="0.25"/>
<ellipse cx="57.994" cy="46.4353" rx="5.962" ry="6.30603" fill="#1C25FF" fill-opacity="0.25"/>
<ellipse cx="57.994" cy="126.694" rx="5.962" ry="6.30603" fill="#1C25FF" fill-opacity="0.25"/>
<ellipse cx="57.994" cy="86.5647" rx="5.962" ry="6.30603" fill="#1C25FF" fill-opacity="0.25"/>
<ellipse cx="110.026" cy="6.30603" rx="5.962" ry="6.30603" fill="#1C25FF" fill-opacity="0.25"/>
<ellipse cx="110.026" cy="46.4353" rx="5.962" ry="6.30603" fill="#1C25FF" fill-opacity="0.25"/>
<ellipse cx="110.026" cy="126.694" rx="5.962" ry="6.30603" fill="#1C25FF" fill-opacity="0.25"/>
<ellipse cx="110.026" cy="86.5647" rx="5.962" ry="6.30603" fill="#1C25FF" fill-opacity="0.25"/>
<ellipse cx="162.058" cy="6.30603" rx="5.962" ry="6.30603" fill="#1C25FF" fill-opacity="0.25"/>
<ellipse cx="162.058" cy="46.4353" rx="5.962" ry="6.30603" fill="#1C25FF" fill-opacity="0.25"/>
<ellipse cx="162.058" cy="126.694" rx="5.962" ry="6.30603" fill="#1C25FF" fill-opacity="0.25"/>
<ellipse cx="162.058" cy="86.5647" rx="5.962" ry="6.30603" fill="#1C25FF" fill-opacity="0.25"/>
<ellipse cx="214.09" cy="6.30603" rx="5.962" ry="6.30603" fill="#1C25FF" fill-opacity="0.25"/>
<ellipse cx="214.09" cy="46.4353" rx="5.962" ry="6.30603" fill="#1C25FF" fill-opacity="0.25"/>
<ellipse cx="214.09" cy="126.694" rx="5.962" ry="6.30603" fill="#1C25FF" fill-opacity="0.25"/>
<ellipse cx="214.09" cy="86.5647" rx="5.962" ry="6.30603" fill="#1C25FF" fill-opacity="0.25"/>
<ellipse cx="265.038" cy="6.30603" rx="5.962" ry="6.30603" fill="#1C25FF" fill-opacity="0.25"/>
<ellipse cx="265.038" cy="46.4353" rx="5.962" ry="6.30603" fill="#1C25FF" fill-opacity="0.25"/>
<ellipse cx="265.038" cy="126.694" rx="5.962" ry="6.30603" fill="#1C25FF" fill-opacity="0.25"/>
<ellipse cx="265.038" cy="86.5647" rx="5.962" ry="6.30603" fill="#1C25FF" fill-opacity="0.25"/>
</svg>
