<svg width="886" height="597" viewBox="0 0 886 597" fill="none" xmlns="http://www.w3.org/2000/svg">
<g filter="url(#filter0_f_0_1)">
<ellipse cx="301.324" cy="373.96" rx="241.775" ry="185.105" transform="rotate(-59.503 301.324 373.96)" fill="url(#paint0_radial_0_1)"/>
</g>
<g filter="url(#filter1_f_0_1)">
<ellipse cx="538.172" cy="411.75" rx="266.024" ry="210.941" transform="rotate(-80.5461 538.172 411.75)" fill="url(#paint1_radial_0_1)"/>
</g>
<g filter="url(#filter2_bi_0_1)">
<ellipse cx="431" cy="424" rx="313" ry="305" fill="url(#paint2_linear_0_1)" fill-opacity="0.46"/>
</g>
<g filter="url(#filter3_i_0_1)">
<path d="M198.898 670.913C147.449 656.715 108.968 613.932 88.4609 555.945C67.9555 497.964 65.4848 424.916 86.0011 350.57C106.517 276.223 146.102 214.78 193.441 175.521C240.785 136.258 295.761 119.266 347.21 133.463C398.659 147.661 437.14 190.443 457.647 248.43C478.153 306.412 480.623 379.46 460.107 453.806C439.591 528.153 400.006 589.595 352.667 628.855C305.323 668.118 250.347 685.11 198.898 670.913Z" stroke="url(#paint3_linear_0_1)" stroke-width="3"/>
</g>
<g filter="url(#filter4_i_0_1)">
<path d="M749.787 244.494C787.763 312.242 802.866 384.455 796.518 446.48C790.17 508.5 762.344 560.472 714.326 587.389C666.308 614.305 607.452 610.922 551.234 583.973C495.011 557.023 441.29 506.456 403.314 438.708C365.338 370.96 350.235 298.747 356.583 236.722C362.931 174.702 390.757 122.73 438.775 95.8133C486.793 68.897 545.649 72.2806 601.867 99.2289C658.09 126.18 711.812 176.746 749.787 244.494Z" stroke="url(#paint4_linear_0_1)" stroke-width="3"/>
</g>
<g filter="url(#filter5_f_0_1)">
<ellipse cx="665.304" cy="108" rx="38.5046" ry="30.456" transform="rotate(-80.5461 665.304 108)" fill="url(#paint5_radial_0_1)"/>
</g>
<g filter="url(#filter6_f_0_1)">
<ellipse cx="611" cy="94.493" rx="48.5693" ry="38.7062" transform="rotate(-59.503 611 94.493)" fill="url(#paint6_radial_0_1)"/>
</g>
<g filter="url(#filter7_bi_0_1)">
<ellipse cx="635" cy="100.5" rx="60" ry="55.5" fill="url(#paint7_linear_0_1)" fill-opacity="0.46"/>
</g>
<ellipse cx="103.5" cy="235.235" rx="75.5" ry="74.2346" fill="#F68DFF" fill-opacity="0.36"/>
<ellipse cx="103.585" cy="234" rx="94.5852" ry="93" fill="#F68DFF" fill-opacity="0.36"/>
<ellipse cx="105.5" cy="234.397" rx="63.5" ry="61.3974" fill="#E019E4"/>
<path d="M66.5 245.333L56.7083 235.542L59.45 232.702L64.5417 237.794V221.833H68.4583V237.794L73.55 232.702L76.2917 235.542L66.5 245.333ZM54.75 253.167C53.6729 253.167 52.7512 252.784 51.9848 252.017C51.2185 251.251 50.8346 250.329 50.8333 249.25V243.375H54.75V249.25H78.25V243.375H82.1667V249.25C82.1667 250.327 81.7835 251.25 81.0171 252.017C80.2508 252.785 79.3284 253.168 78.25 253.167H54.75Z" fill="white"/>
<path d="M111.845 251.567C108.87 251.567 106.31 250.937 104.167 249.676C102.037 248.403 100.398 246.638 99.2507 244.382C98.1161 242.125 97.5488 239.528 97.5488 236.591C97.5488 233.616 98.1224 231.006 99.2696 228.762C100.429 226.506 102.075 224.747 104.205 223.486C106.336 222.213 108.87 221.576 111.807 221.576C114.341 221.576 116.559 222.036 118.463 222.957C120.367 223.877 121.873 225.169 122.983 226.833C124.092 228.497 124.703 230.451 124.817 232.695H117.215C117.001 231.246 116.433 230.079 115.513 229.197C114.605 228.302 113.414 227.854 111.939 227.854C110.691 227.854 109.601 228.195 108.668 228.876C107.748 229.544 107.029 230.521 106.512 231.807C105.995 233.092 105.737 234.649 105.737 236.477C105.737 238.33 105.989 239.906 106.493 241.205C107.01 242.503 107.735 243.493 108.668 244.174C109.601 244.854 110.691 245.195 111.939 245.195C112.859 245.195 113.685 245.006 114.416 244.627C115.16 244.249 115.772 243.701 116.251 242.982C116.742 242.251 117.064 241.375 117.215 240.354H124.817C124.691 242.573 124.086 244.527 123.001 246.216C121.93 247.892 120.449 249.204 118.558 250.149C116.667 251.095 114.429 251.567 111.845 251.567ZM157.586 221.955L147.431 251H138.354L128.2 221.955H136.709L142.742 242.736H143.044L149.057 221.955H157.586Z" fill="#F5F5F5"/>
<defs>
<filter id="filter0_f_0_1" x="0.0819769" y="45.3757" width="602.484" height="657.168" filterUnits="userSpaceOnUse" color-interpolation-filters="sRGB">
<feFlood flood-opacity="0" result="BackgroundImageFix"/>
<feBlend mode="normal" in="SourceGraphic" in2="BackgroundImageFix" result="shape"/>
<feGaussianBlur stdDeviation="50" result="effect1_foregroundBlur_0_1"/>
</filter>
<filter id="filter1_f_0_1" x="201.465" y="22.9824" width="673.414" height="777.535" filterUnits="userSpaceOnUse" color-interpolation-filters="sRGB">
<feFlood flood-opacity="0" result="BackgroundImageFix"/>
<feBlend mode="normal" in="SourceGraphic" in2="BackgroundImageFix" result="shape"/>
<feGaussianBlur stdDeviation="62.0248" result="effect1_foregroundBlur_0_1"/>
</filter>
<filter id="filter2_bi_0_1" x="91" y="92" width="680" height="664" filterUnits="userSpaceOnUse" color-interpolation-filters="sRGB">
<feFlood flood-opacity="0" result="BackgroundImageFix"/>
<feGaussianBlur in="BackgroundImageFix" stdDeviation="13.5"/>
<feComposite in2="SourceAlpha" operator="in" result="effect1_backgroundBlur_0_1"/>
<feBlend mode="normal" in="SourceGraphic" in2="effect1_backgroundBlur_0_1" result="shape"/>
<feColorMatrix in="SourceAlpha" type="matrix" values="0 0 0 0 0 0 0 0 0 0 0 0 0 0 0 0 0 0 127 0" result="hardAlpha"/>
<feOffset/>
<feGaussianBlur stdDeviation="20"/>
<feComposite in2="hardAlpha" operator="arithmetic" k2="-1" k3="1"/>
<feColorMatrix type="matrix" values="0 0 0 0 1 0 0 0 0 1 0 0 0 0 1 0 0 0 0.8 0"/>
<feBlend mode="normal" in2="shape" result="effect2_innerShadow_0_1"/>
</filter>
<filter id="filter3_i_0_1" x="70.2924" y="127.004" width="405.523" height="554.367" filterUnits="userSpaceOnUse" color-interpolation-filters="sRGB">
<feFlood flood-opacity="0" result="BackgroundImageFix"/>
<feBlend mode="normal" in="SourceGraphic" in2="BackgroundImageFix" result="shape"/>
<feColorMatrix in="SourceAlpha" type="matrix" values="0 0 0 0 0 0 0 0 0 0 0 0 0 0 0 0 0 0 127 0" result="hardAlpha"/>
<feOffset dy="4"/>
<feGaussianBlur stdDeviation="2"/>
<feComposite in2="hardAlpha" operator="arithmetic" k2="-1" k3="1"/>
<feColorMatrix type="matrix" values="0 0 0 0 0.949109 0 0 0 0 0.215206 0 0 0 0 0.964086 0 0 0 1 0"/>
<feBlend mode="normal" in2="shape" result="effect1_innerShadow_0_1"/>
</filter>
<filter id="filter4_i_0_1" x="353.679" y="75.7415" width="445.743" height="535.719" filterUnits="userSpaceOnUse" color-interpolation-filters="sRGB">
<feFlood flood-opacity="0" result="BackgroundImageFix"/>
<feBlend mode="normal" in="SourceGraphic" in2="BackgroundImageFix" result="shape"/>
<feColorMatrix in="SourceAlpha" type="matrix" values="0 0 0 0 0 0 0 0 0 0 0 0 0 0 0 0 0 0 127 0" result="hardAlpha"/>
<feOffset dy="4"/>
<feGaussianBlur stdDeviation="2"/>
<feComposite in2="hardAlpha" operator="arithmetic" k2="-1" k3="1"/>
<feColorMatrix type="matrix" values="0 0 0 0 0.949109 0 0 0 0 0.215206 0 0 0 0 0.964086 0 0 0 1 0"/>
<feBlend mode="normal" in2="shape" result="effect1_innerShadow_0_1"/>
</filter>
<filter id="filter5_f_0_1" x="624.597" y="59.686" width="81.4142" height="96.6282" filterUnits="userSpaceOnUse" color-interpolation-filters="sRGB">
<feFlood flood-opacity="0" result="BackgroundImageFix"/>
<feBlend mode="normal" in="SourceGraphic" in2="BackgroundImageFix" result="shape"/>
<feGaussianBlur stdDeviation="5" result="effect1_foregroundBlur_0_1"/>
</filter>
<filter id="filter6_f_0_1" x="559.526" y="38.2515" width="102.948" height="112.483" filterUnits="userSpaceOnUse" color-interpolation-filters="sRGB">
<feFlood flood-opacity="0" result="BackgroundImageFix"/>
<feBlend mode="normal" in="SourceGraphic" in2="BackgroundImageFix" result="shape"/>
<feGaussianBlur stdDeviation="5" result="effect1_foregroundBlur_0_1"/>
</filter>
<filter id="filter7_bi_0_1" x="548" y="17.9998" width="174" height="165" filterUnits="userSpaceOnUse" color-interpolation-filters="sRGB">
<feFlood flood-opacity="0" result="BackgroundImageFix"/>
<feGaussianBlur in="BackgroundImageFix" stdDeviation="13.5"/>
<feComposite in2="SourceAlpha" operator="in" result="effect1_backgroundBlur_0_1"/>
<feBlend mode="normal" in="SourceGraphic" in2="effect1_backgroundBlur_0_1" result="shape"/>
<feColorMatrix in="SourceAlpha" type="matrix" values="0 0 0 0 0 0 0 0 0 0 0 0 0 0 0 0 0 0 127 0" result="hardAlpha"/>
<feOffset/>
<feGaussianBlur stdDeviation="20"/>
<feComposite in2="hardAlpha" operator="arithmetic" k2="-1" k3="1"/>
<feColorMatrix type="matrix" values="0 0 0 0 1 0 0 0 0 1 0 0 0 0 1 0 0 0 0.8 0"/>
<feBlend mode="normal" in2="shape" result="effect2_innerShadow_0_1"/>
</filter>
<radialGradient id="paint0_radial_0_1" cx="0" cy="0" r="1" gradientUnits="userSpaceOnUse" gradientTransform="translate(301.324 456.228) rotate(-90) scale(387.348 505.937)">
<stop stop-color="#3CF3FF"/>
<stop offset="0.446" stop-color="#71F7FF" stop-opacity="0.724"/>
<stop offset="1" stop-color="white" stop-opacity="0"/>
</radialGradient>
<radialGradient id="paint1_radial_0_1" cx="0" cy="0" r="1" gradientUnits="userSpaceOnUse" gradientTransform="translate(538.172 505.501) rotate(-90) scale(441.413 556.679)">
<stop stop-color="#FA00FF"/>
<stop offset="0.446" stop-color="#F237F6"/>
<stop offset="1" stop-color="white" stop-opacity="0"/>
</radialGradient>
<linearGradient id="paint2_linear_0_1" x1="431" y1="119" x2="431" y2="729" gradientUnits="userSpaceOnUse">
<stop stop-color="white"/>
<stop offset="1" stop-color="white" stop-opacity="0"/>
</linearGradient>
<linearGradient id="paint3_linear_0_1" x1="84.4203" y1="350.659" x2="712.75" y2="524.051" gradientUnits="userSpaceOnUse">
<stop stop-color="#F237F6"/>
<stop offset="0.151" stop-color="#F237F6" stop-opacity="0"/>
</linearGradient>
<linearGradient id="paint4_linear_0_1" x1="748.727" y1="245.669" x2="175.633" y2="566.916" gradientUnits="userSpaceOnUse">
<stop stop-color="#F237F6"/>
<stop offset="0.131" stop-color="#F237F6" stop-opacity="0"/>
</linearGradient>
<radialGradient id="paint5_radial_0_1" cx="0" cy="0" r="1" gradientUnits="userSpaceOnUse" gradientTransform="translate(665.304 121.536) rotate(-90) scale(63.7321 80.5744)">
<stop stop-color="#FA00FF"/>
<stop offset="0.446" stop-color="#F237F6"/>
<stop offset="1" stop-color="white" stop-opacity="0"/>
</radialGradient>
<radialGradient id="paint6_radial_0_1" cx="0" cy="0" r="1" gradientUnits="userSpaceOnUse" gradientTransform="translate(611 111.696) rotate(-90) scale(80.9963 101.636)">
<stop stop-color="#3CF3FF"/>
<stop offset="0.446" stop-color="#71F7FF" stop-opacity="0.724"/>
<stop offset="1" stop-color="white" stop-opacity="0"/>
</radialGradient>
<linearGradient id="paint7_linear_0_1" x1="635" y1="44.9998" x2="635" y2="156" gradientUnits="userSpaceOnUse">
<stop stop-color="white"/>
<stop offset="1" stop-color="white" stop-opacity="0"/>
</linearGradient>
</defs>
</svg>
