<svg width="113" height="394" viewBox="0 0 113 394" fill="none" xmlns="http://www.w3.org/2000/svg">
<path fill-rule="evenodd" clip-rule="evenodd" d="M107.5 11C104.462 11 102 8.53757 102 5.5C102 2.46243 104.462 0 107.5 0C110.538 0 113 2.46243 113 5.5C113 8.53757 110.538 11 107.5 11ZM73.5 11C70.4624 11 68 8.53757 68 5.5C68 2.46243 70.4624 0 73.5 0C76.5376 0 79 2.46243 79 5.5C79 8.53757 76.5376 11 73.5 11ZM0 5.5C0 8.53757 2.46243 11 5.5 11C8.53757 11 11 8.53757 11 5.5C11 2.46243 8.53757 0 5.5 0C2.46243 0 0 2.46243 0 5.5ZM39.5 11C36.4624 11 34 8.53757 34 5.5C34 2.46243 36.4624 0 39.5 0C42.5376 0 45 2.46243 45 5.5C45 8.53757 42.5376 11 39.5 11ZM102 53.5C102 56.5376 104.462 59 107.5 59C110.538 59 113 56.5376 113 53.5C113 50.4624 110.538 48 107.5 48C104.462 48 102 50.4624 102 53.5ZM73.5 59C70.4624 59 68 56.5376 68 53.5C68 50.4624 70.4624 48 73.5 48C76.5376 48 79 50.4624 79 53.5C79 56.5376 76.5376 59 73.5 59ZM0 53.5C0 56.5376 2.46243 59 5.5 59C8.53757 59 11 56.5376 11 53.5C11 50.4624 8.53757 48 5.5 48C2.46243 48 0 50.4624 0 53.5ZM39.5 59C36.4624 59 34 56.5376 34 53.5C34 50.4624 36.4624 48 39.5 48C42.5376 48 45 50.4624 45 53.5C45 56.5376 42.5376 59 39.5 59ZM102 101.5C102 104.538 104.462 107 107.5 107C110.538 107 113 104.538 113 101.5C113 98.4624 110.538 96 107.5 96C104.462 96 102 98.4624 102 101.5ZM73.5 107C70.4624 107 68 104.538 68 101.5C68 98.4624 70.4624 96 73.5 96C76.5376 96 79 98.4624 79 101.5C79 104.538 76.5376 107 73.5 107ZM0 101.5C0 104.538 2.46243 107 5.5 107C8.53757 107 11 104.538 11 101.5C11 98.4624 8.53757 96 5.5 96C2.46243 96 0 98.4624 0 101.5ZM39.5 107C36.4624 107 34 104.538 34 101.5C34 98.4624 36.4624 96 39.5 96C42.5376 96 45 98.4624 45 101.5C45 104.538 42.5376 107 39.5 107ZM102 149.5C102 152.538 104.462 155 107.5 155C110.538 155 113 152.538 113 149.5C113 146.462 110.538 144 107.5 144C104.462 144 102 146.462 102 149.5ZM73.5 155C70.4624 155 68 152.538 68 149.5C68 146.462 70.4624 144 73.5 144C76.5376 144 79 146.462 79 149.5C79 152.538 76.5376 155 73.5 155ZM0 149.5C0 152.538 2.46243 155 5.5 155C8.53757 155 11 152.538 11 149.5C11 146.462 8.53757 144 5.5 144C2.46243 144 0 146.462 0 149.5ZM39.5 155C36.4624 155 34 152.538 34 149.5C34 146.462 36.4624 144 39.5 144C42.5376 144 45 146.462 45 149.5C45 152.538 42.5376 155 39.5 155ZM102 197.5C102 200.538 104.462 203 107.5 203C110.538 203 113 200.538 113 197.5C113 194.462 110.538 192 107.5 192C104.462 192 102 194.462 102 197.5ZM73.5 203C70.4624 203 68 200.538 68 197.5C68 194.462 70.4624 192 73.5 192C76.5376 192 79 194.462 79 197.5C79 200.538 76.5376 203 73.5 203ZM0 197.5C0 200.538 2.46243 203 5.5 203C8.53757 203 11 200.538 11 197.5C11 194.462 8.53757 192 5.5 192C2.46243 192 0 194.462 0 197.5ZM39.5 203C36.4624 203 34 200.538 34 197.5C34 194.462 36.4624 192 39.5 192C42.5376 192 45 194.462 45 197.5C45 200.538 42.5376 203 39.5 203ZM102.022 245C102.008 244.835 102 244.669 102 244.5C102 241.462 104.462 239 107.5 239C110.538 239 113 241.462 113 244.5C113 244.669 112.992 244.835 112.978 245C112.992 245.165 113 245.331 113 245.5C113 248.538 110.538 251 107.5 251C104.462 251 102 248.538 102 245.5C102 245.331 102.008 245.165 102.022 245ZM68.0224 245C68.0076 244.835 68 244.669 68 244.5C68 241.462 70.4624 239 73.5 239C76.5376 239 79 241.462 79 244.5C79 244.669 78.9924 244.835 78.9776 245C78.9924 245.165 79 245.331 79 245.5C79 248.538 76.5376 251 73.5 251C70.4624 251 68 248.538 68 245.5C68 245.331 68.0076 245.165 68.0224 245ZM0.0224228 245C0.00758362 244.835 0 244.669 0 244.5C0 241.462 2.46243 239 5.5 239C8.53757 239 11 241.462 11 244.5C11 244.669 10.9924 244.835 10.9776 245C10.9924 245.165 11 245.331 11 245.5C11 248.538 8.53757 251 5.5 251C2.46243 251 0 248.538 0 245.5C0 245.331 0.00758362 245.165 0.0224228 245ZM34.0224 245C34.0076 244.835 34 244.669 34 244.5C34 241.462 36.4624 239 39.5 239C42.5376 239 45 241.462 45 244.5C45 244.669 44.9924 244.835 44.9776 245C44.9924 245.165 45 245.331 45 245.5C45 248.538 42.5376 251 39.5 251C36.4624 251 34 248.538 34 245.5C34 245.331 34.0076 245.165 34.0224 245ZM102 293.5C102 296.538 104.462 299 107.5 299C110.538 299 113 296.538 113 293.5C113 290.462 110.538 288 107.5 288C104.462 288 102 290.462 102 293.5ZM73.5 299C70.4624 299 68 296.538 68 293.5C68 290.462 70.4624 288 73.5 288C76.5376 288 79 290.462 79 293.5C79 296.538 76.5376 299 73.5 299ZM0 293.5C0 296.538 2.46243 299 5.5 299C8.53757 299 11 296.538 11 293.5C11 290.462 8.53757 288 5.5 288C2.46243 288 0 290.462 0 293.5ZM39.5 299C36.4624 299 34 296.538 34 293.5C34 290.462 36.4624 288 39.5 288C42.5376 288 45 290.462 45 293.5C45 296.538 42.5376 299 39.5 299ZM102 341.5C102 344.538 104.462 347 107.5 347C110.538 347 113 344.538 113 341.5C113 338.462 110.538 336 107.5 336C104.462 336 102 338.462 102 341.5ZM73.5 347C70.4624 347 68 344.538 68 341.5C68 338.462 70.4624 336 73.5 336C76.5376 336 79 338.462 79 341.5C79 344.538 76.5376 347 73.5 347ZM0 341.5C0 344.538 2.46243 347 5.5 347C8.53757 347 11 344.538 11 341.5C11 338.462 8.53757 336 5.5 336C2.46243 336 0 338.462 0 341.5ZM39.5 347C36.4624 347 34 344.538 34 341.5C34 338.462 36.4624 336 39.5 336C42.5376 336 45 338.462 45 341.5C45 344.538 42.5376 347 39.5 347ZM102 388.5C102 391.538 104.462 394 107.5 394C110.538 394 113 391.538 113 388.5C113 385.462 110.538 383 107.5 383C104.462 383 102 385.462 102 388.5ZM73.5 394C70.4624 394 68 391.538 68 388.5C68 385.462 70.4624 383 73.5 383C76.5376 383 79 385.462 79 388.5C79 391.538 76.5376 394 73.5 394ZM0 388.5C0 391.538 2.46243 394 5.5 394C8.53757 394 11 391.538 11 388.5C11 385.462 8.53757 383 5.5 383C2.46243 383 0 385.462 0 388.5ZM39.5 394C36.4624 394 34 391.538 34 388.5C34 385.462 36.4624 383 39.5 383C42.5376 383 45 385.462 45 388.5C45 391.538 42.5376 394 39.5 394Z" fill="#1C25FF" fill-opacity="0.25"/>
</svg>
