<svg width="90" height="73" viewBox="0 0 90 73" fill="none" xmlns="http://www.w3.org/2000/svg">
<path d="M77.3438 12.5469H51.1875L45.2813 22.1281H12.375V60.4531H83.25V12.5469H77.3438ZM77.3438 22.1281H54.2812L57.375 17.3375H77.3438V22.1281Z" fill="#5597BF"/>
<path d="M39.8728 65.9304L35.1337 22.8125H87.21L82.4681 65.9236L61.1409 70.7188L39.8728 65.9304Z" fill="#1572B6"/>
<path d="M61.1719 67.0528L78.4041 63.1769L82.4597 26.337H61.1719V67.0528Z" fill="#33A9DC"/>
<path d="M61.1719 41.959H69.8006L70.3941 36.5433H61.1719V31.2554H61.1944H77.5209L77.3634 32.6743L75.7603 47.247H61.1719V41.959Z" fill="white"/>
<path d="M61.2112 55.6921L61.1831 55.699L53.9212 54.109L53.4572 49.8909H49.9303H46.9125L47.8265 58.1947L61.1803 61.2014L61.2112 61.1945V55.6921Z" fill="#EBEBEB"/>
<path d="M69.2437 47.0234L68.459 54.1067L61.1887 55.6967V61.1991L74.5537 58.1947L74.6522 57.3004L75.7856 47.0234H69.2437Z" fill="white"/>
<path d="M61.1944 31.2554V34.5404V36.5319V36.5433H45.4669H45.4472L45.315 35.3548L45.0197 32.6743L44.8622 31.2554H61.1944Z" fill="#EBEBEB"/>
<path d="M61.1719 41.959V45.244V47.2356V47.2493H54.0225H54.0028L53.8735 46.0607L53.5753 43.378L53.4207 41.959H61.1719Z" fill="#EBEBEB"/>
</svg>
