<svg width="57" height="57" viewBox="0 0 57 57" fill="none" xmlns="http://www.w3.org/2000/svg">
<path d="M25.178 7.125H32.2406V39.4885C29.2258 40.1073 26.1573 40.4265 23.0797 40.4415C14.4548 40.4326 9.96609 36.5797 9.96609 29.1804C9.96609 22.0554 14.7274 17.4242 22.1071 17.4242C23.1421 17.404 24.1751 17.5238 25.178 17.7804V7.125ZM25.178 23.4092C24.4102 23.1559 23.6048 23.0354 22.7964 23.0529C19.2339 23.0529 17.1623 25.2314 17.1623 29.0486C17.1623 32.7661 19.1342 34.8181 22.7519 34.8181C23.5639 34.8179 24.3747 34.7584 25.178 34.64V23.4181V23.4092Z" fill="#44B78B"/>
<path d="M43.4625 17.9176V34.127C43.4625 39.7076 43.0439 42.3902 41.8184 44.704C40.5677 47.0567 38.5226 48.8891 36.0472 49.875L29.4957 46.7881C31.8758 45.9731 33.8693 44.3046 35.0906 42.1052C36.0988 40.1084 36.4177 37.7946 36.4177 31.708V17.9176H43.4625Z" fill="#44B78B"/>
<path d="M43.4714 7.16062H36.4105V14.3355H43.4714V7.16062Z" fill="#44B78B"/>
</svg>
