<svg width="70" height="75" viewBox="0 0 70 75" fill="none" xmlns="http://www.w3.org/2000/svg">
<path d="M12.9106 63.7523L7.9953 4.6875H62.0047L57.0828 63.743L34.9672 70.3125L12.9106 63.7523Z" fill="#E44F26"/>
<path d="M35 65.2922L52.8719 59.9836L57.0762 9.51797H35V65.2922Z" fill="#F1662A"/>
<path d="M35 31.4227H26.0531L25.4363 24.0047H35V16.7602H34.9759H18.0469L18.2088 18.7055L19.8691 38.6672H35V31.4227Z" fill="#EBEBEB"/>
<path d="M35 50.2359L34.9694 50.2453L27.44 48.068L26.9588 42.2906H23.2991H20.171L21.1181 53.6625L34.9694 57.7828L35 57.7734V50.2359Z" fill="#EBEBEB"/>
<path d="M34.976 31.4227V38.6672H43.3016L42.5185 48.0633L34.976 50.243V57.7805L48.8381 53.6625L48.9388 52.4391L50.5269 33.368L50.6931 31.4227H48.871H34.976Z" fill="white"/>
<path d="M34.976 16.7602V21.2602V23.9883V24.0047H51.286H51.3078L51.4435 22.3781L51.7519 18.7055L51.9138 16.7602H34.976Z" fill="white"/>
</svg>
