<svg width="56" height="58" viewBox="0 0 56 58" fill="none" xmlns="http://www.w3.org/2000/svg">
<g clip-path="url(#clip0_2271_90)">
<path d="M47.6 0H8.4C3.76081 0 0 3.89512 0 8.7V49.3C0 54.1049 3.76081 58 8.4 58H47.6C52.2392 58 56 54.1049 56 49.3V8.7C56 3.89512 52.2392 0 47.6 0Z" fill="#F7DF1E"/>
<path d="M35.4375 41.9141C36.5312 43.8398 38.0625 45.1992 40.5781 45.1992C42.7656 45.1992 44.1875 44.0664 44.1875 42.4805C44.1875 40.668 42.7656 39.9883 40.3594 38.8555L39.0469 38.2891C35.2188 36.5898 32.7031 34.5508 32.7031 30.1328C32.7031 26.0547 35.6562 22.8828 40.3594 22.8828C43.75 22.8828 46.1562 24.1289 47.7969 27.3008L43.75 30.0195C42.875 28.3203 41.8906 27.6406 40.3594 27.6406C38.8281 27.6406 37.8438 28.6602 37.8438 30.0195C37.8438 31.6055 38.8281 32.2852 41.125 33.3047L42.4375 33.8711C46.9219 35.9102 49.4375 37.8359 49.4375 42.4805C49.4375 47.3516 45.7188 50.0703 40.6875 50.0703C35.7656 50.0703 32.5938 47.6914 31.0625 44.5195L35.4375 41.9141ZM16.8438 42.3672C17.7188 43.8398 18.375 45.1992 20.2344 45.1992C21.9844 45.1992 23.0781 44.5195 23.0781 41.8008V22.9961H28.3281V41.5742C28.3281 47.2383 25.1562 49.7305 20.4531 49.7305C16.1875 49.7305 13.7812 47.4648 12.5781 44.7461L16.8438 42.3672Z" fill="black"/>
</g>
<defs>
<clipPath id="clip0_2271_90">
<rect width="56" height="58" fill="white"/>
</clipPath>
</defs>
</svg>
