<svg width="159" height="163" viewBox="0 0 159 163" fill="none" xmlns="http://www.w3.org/2000/svg">
<path d="M37.5173 57.9609H67.5062V60.4044H40.2663V78.7951H65.8818V81.2387H40.2663V101.43H67.8185V103.873H37.5173V57.9609ZM70.1927 57.9609H73.379L87.4987 78.1521L101.931 57.9609L121.561 32.3135L89.3106 80.2741L105.929 103.873H102.618L87.4987 82.3961L72.3169 103.873H69.0681L85.8119 80.2741L70.1927 57.9609ZM107.116 60.4044V57.9609H141.291V60.4044H125.547V103.873H122.798V60.4044H107.116ZM0 57.9609H3.43622L50.8197 130.65L31.2384 103.873L2.87393 61.4333L2.74898 103.873H0V57.9609ZM141.014 100.692C140.453 100.692 140.031 100.246 140.031 99.6698C140.031 99.0933 140.453 98.6472 141.014 98.6472C141.583 98.6472 141.997 99.0933 141.997 99.6698C141.997 100.246 141.583 100.692 141.014 100.692ZM143.715 98.002H145.186C145.206 98.8188 145.788 99.3678 146.644 99.3678C147.6 99.3678 148.142 98.7776 148.142 97.6726V90.6721H149.639V97.6795C149.639 99.6698 148.516 100.816 146.657 100.816C144.912 100.816 143.715 99.7041 143.715 98.002ZM151.598 97.9128H153.083C153.21 98.8531 154.106 99.4502 155.396 99.4502C156.6 99.4502 157.482 98.8119 157.482 97.9334C157.482 97.1784 156.921 96.7255 155.644 96.4166L154.4 96.1078C152.655 95.6891 151.859 94.8243 151.859 93.3693C151.859 91.6055 153.263 90.4318 155.369 90.4318C157.328 90.4318 158.759 91.6055 158.846 93.2732H157.389C157.248 92.3604 156.473 91.7908 155.349 91.7908C154.166 91.7908 153.377 92.3741 153.377 93.2664C153.377 93.9733 153.885 94.3782 155.142 94.6802L156.205 94.9479C158.184 95.4214 159 96.245 159 97.7344C159 99.6286 157.569 100.816 155.283 100.816C153.143 100.816 151.705 99.6835 151.598 97.9128Z" fill="#FBE9E9"/>
</svg>
