<svg width="94" height="95" viewBox="0 0 94 95" fill="none" xmlns="http://www.w3.org/2000/svg">
<path d="M92.2225 56.8869C91.676 55.2142 90.2443 54.049 88.3927 53.7692C87.5197 53.6375 86.5198 53.6937 85.3367 53.9403C83.2745 54.3702 81.7445 54.5338 80.628 54.5658C84.8424 47.3741 88.2695 39.173 90.2424 31.4531C93.4325 18.9706 91.7278 13.284 89.7357 10.7116C84.4637 3.90355 76.7718 0.245938 67.4918 0.133818C62.5419 0.0727588 58.1959 1.06056 55.9291 1.77072C53.8183 1.39458 51.5485 1.18438 49.167 1.14545C44.7035 1.07354 40.7594 2.05688 37.3893 4.07801C35.5231 3.44061 32.529 2.54173 29.0709 1.96795C20.9376 0.618465 14.3827 1.67009 9.58809 5.09326C3.78218 9.23807 1.09058 16.4393 1.58844 26.4971C1.74633 29.6905 3.51399 39.4062 6.29695 48.6206C7.89642 53.9166 9.60199 58.3148 11.3663 61.6938C13.8682 66.4851 16.5453 69.3068 19.5508 70.32C21.2355 70.8874 24.2961 71.2844 27.5155 68.5752C27.9234 69.0743 28.4676 69.5707 29.1903 70.0315C30.1077 70.6163 31.2297 71.0942 32.3501 71.3773C36.3883 72.3977 40.1708 72.1424 43.3977 70.7125C43.4175 71.2924 43.4329 71.8467 43.4459 72.3251C43.4674 73.1015 43.4885 73.8625 43.5167 74.5741C43.7078 79.387 44.0318 83.1291 44.9917 85.7472C45.0443 85.8914 45.1153 86.1108 45.1902 86.3433C45.6689 87.8253 46.4699 90.306 48.5071 92.2491C50.617 94.2615 53.1688 94.8789 55.5059 94.8787C56.6781 94.8787 57.7965 94.7234 58.7773 94.5108C62.2741 93.7536 66.2452 92.5997 69.1178 88.4659C71.8336 84.5579 73.154 78.6719 73.3929 69.3973C73.4238 69.1352 73.4525 68.8848 73.48 68.646C73.4986 68.485 73.5175 68.3203 73.5367 68.1561L74.1766 68.2129L74.3415 68.2242C77.9029 68.3882 82.2575 67.6248 84.9319 66.3694C87.0452 65.3782 93.8169 61.7652 92.2225 56.8869Z" fill="black"/>
<path d="M86.1331 57.8357C75.5439 60.0432 74.8159 56.4199 74.8159 56.4199C85.9964 39.6534 90.6702 18.3708 86.6368 13.1621C75.6334 -1.04653 56.5859 5.67321 56.268 5.84767L56.1657 5.86618C54.0736 5.42727 51.7323 5.1658 49.1009 5.1224C44.3095 5.04305 40.675 6.39189 37.9171 8.50557C37.9171 8.50557 3.93818 -5.64131 5.51849 26.2979C5.85468 33.0928 15.1549 77.7107 26.2478 64.234C30.3022 59.3061 34.2196 55.1393 34.2196 55.1393C36.1654 56.4456 38.4947 57.112 40.9366 56.8726L41.1263 56.7099C41.0674 57.3217 41.0943 57.9202 41.2023 58.6287C38.3446 61.8554 39.1843 62.422 33.4717 63.6104C27.6913 64.8144 31.087 66.9579 33.3041 67.518C35.9919 68.1973 42.2102 69.1596 46.4118 63.2154L46.2443 63.8936C47.364 64.7999 48.1502 69.7891 48.0185 74.3118C47.8867 78.8347 47.7987 81.9398 48.6809 84.3652C49.5632 86.7905 50.4425 92.2476 57.9523 90.6213C64.2274 89.2623 67.4792 85.7404 67.9316 79.8657C68.2526 75.6892 68.9791 76.3066 69.025 72.5726L69.6077 70.8048C70.2796 65.1433 69.7144 63.3168 73.5805 64.1664L74.52 64.2497C77.3655 64.3806 81.0896 63.7872 83.2754 62.7605C87.982 60.553 90.7734 56.8673 86.1326 57.8357H86.1331Z" fill="#336791"/>
<path d="M39.906 29.3367C38.9519 29.2024 38.0876 29.3267 37.6503 29.6611C37.4043 29.8494 37.3283 30.0675 37.3078 30.2177C37.2529 30.6153 37.5287 31.0548 37.6979 31.2816C38.177 31.9235 38.8772 32.3647 39.5702 32.462C39.6706 32.476 39.7704 32.4828 39.8698 32.4828C41.0255 32.4828 42.0759 31.5735 42.1686 30.9023C42.2843 30.0617 41.0768 29.5013 39.906 29.3367Z" fill="white"/>
<path d="M71.5185 29.3633C71.4275 28.7044 70.267 28.5165 69.166 28.6712C68.0667 28.8261 67.0005 29.3275 67.0895 29.9879C67.1611 30.5015 68.0783 31.3782 69.1645 31.378C69.2561 31.378 69.3487 31.3718 69.442 31.3587C70.167 31.2572 70.699 30.7919 70.9516 30.5236C71.3366 30.1151 71.5591 29.6594 71.5185 29.3633Z" fill="white"/>
<path d="M89.6568 57.5849C89.2531 56.3509 87.9536 55.9537 85.7943 56.4046C79.3834 57.7417 77.0876 56.8154 76.3335 56.2544C81.3168 48.5821 85.4161 39.3085 87.6275 30.6557C88.6752 26.5571 89.2539 22.7507 89.301 19.6484C89.3532 16.2427 88.7796 13.7405 87.5959 12.2119C82.8238 6.04936 75.8203 2.74385 67.3424 2.65301C61.5141 2.58684 56.5899 4.09439 55.6352 4.51819C53.6248 4.01291 51.4332 3.70272 49.0474 3.66315C44.672 3.59166 40.8901 4.65031 37.7588 6.80803C36.3986 6.29658 32.8835 5.07709 28.5851 4.37735C21.1532 3.16786 15.2477 4.08418 11.0333 7.10163C6.00455 10.7022 3.68303 17.1384 4.1329 26.2309C4.28425 29.2903 6.00877 38.7009 8.73068 47.7135C12.3134 59.5754 16.2076 66.2907 20.3055 67.6719C20.785 67.8335 21.3382 67.9467 21.9479 67.9467C23.4427 67.9467 25.2752 67.2657 27.182 64.9491C30.3492 61.0983 33.3062 57.8715 34.3963 56.699C36.0071 57.573 37.7764 58.0608 39.5866 58.1098C39.5898 58.1576 39.5946 58.2055 39.5988 58.2532C39.2357 58.6884 38.9378 59.0699 38.684 59.3956C37.4299 61.0045 37.1689 61.3393 33.1321 62.1795C31.984 62.4188 28.9339 63.0541 28.8895 65.2146C28.8409 67.5751 32.4943 68.5665 32.9107 68.6716C34.3613 69.0386 35.7587 69.2196 37.0914 69.2196C40.3329 69.2194 43.1851 68.1429 45.4647 66.0598C45.3944 74.4752 45.7418 82.7676 46.7415 85.2942C47.5602 87.3624 49.5607 92.4174 55.8796 92.4169C56.8065 92.4169 57.8272 92.308 58.9499 92.0648C65.5444 90.6358 68.408 87.6902 69.5159 81.1962C70.1087 77.7256 71.1261 69.4377 71.6044 64.9923C72.6142 65.3105 73.9143 65.4563 75.3197 65.4561C78.2509 65.4561 81.6329 64.8267 83.7541 63.8317C86.1366 62.7135 90.4365 59.969 89.6568 57.5849ZM73.9524 27.5445C73.9305 28.8569 73.7518 30.0483 73.5624 31.2921C73.3586 32.6296 73.1476 34.0125 73.0946 35.6913C73.0422 37.3251 73.2441 39.0237 73.4394 40.6661C73.8339 43.9837 74.2387 47.3994 72.6715 50.7699C72.4279 50.3326 72.1928 49.8557 71.9772 49.3274C71.7825 48.8502 71.3596 48.0837 70.7741 47.0227C68.4956 42.8932 63.1599 33.2228 65.8913 29.2767C66.7047 28.1019 68.7694 26.8945 73.9524 27.5445ZM67.6701 5.31069C75.2662 5.48026 81.2749 8.35218 85.5293 13.8463C88.7922 18.0604 85.1992 37.2357 74.7976 53.7782C74.6949 53.6462 74.5903 53.5131 74.4821 53.3765C74.4389 53.3218 74.3949 53.2663 74.3505 53.2101C77.0383 48.7238 76.5127 44.2852 76.0449 40.3497C75.8527 38.7347 75.6713 37.2093 75.7174 35.7766C75.7651 34.2576 75.9639 32.9554 76.1559 31.6959C76.3923 30.1436 76.6325 28.5378 76.5661 26.6445C76.6156 26.446 76.6356 26.2114 76.6097 25.9329C76.4405 24.1173 74.3897 18.6842 70.2093 13.7661C67.923 11.0765 64.5882 8.06624 60.0353 6.03596C61.9937 5.62578 64.6718 5.24325 67.6701 5.31069ZM25.1643 63.2534C23.0636 65.806 21.6127 65.3169 21.1357 65.1563C18.0271 64.1083 14.4204 57.4685 11.2404 46.9393C8.4888 37.8286 6.8807 28.6674 6.75356 26.0984C6.35169 17.9738 8.30039 12.3115 12.5458 9.26871C19.4548 4.31693 30.814 7.28077 35.3783 8.78407C35.3126 8.84938 35.2444 8.91065 35.1794 8.97703C27.6896 16.6218 27.8672 29.683 27.8855 30.4813C27.8849 30.7893 27.9104 31.2255 27.9455 31.8254C28.0744 34.0221 28.3142 38.1107 27.6736 42.7411C27.078 47.0437 28.3904 51.2551 31.2735 54.2953C31.572 54.61 31.8836 54.9055 32.2055 55.1836C30.922 56.5726 28.1329 59.6441 25.1643 63.2534ZM33.1681 52.4604C30.8443 50.0101 29.789 46.6016 30.2723 43.1083C30.9489 38.2169 30.699 33.957 30.5649 31.6684C30.5462 31.3482 30.5296 31.0676 30.5197 30.8461C31.6139 29.8658 36.6845 27.1198 40.3005 27.9572C41.9509 28.3393 42.9561 29.4747 43.3742 31.4282C45.5378 41.5409 43.6607 45.7559 42.1523 49.1429C41.8414 49.8408 41.5478 50.5003 41.2968 51.1828L41.1025 51.7102C40.6103 53.0439 40.1525 54.2839 39.8687 55.4614C37.3986 55.4538 34.9954 54.3875 33.1681 52.4604ZM33.5473 66.0988C32.826 65.9167 32.1772 65.6003 31.7966 65.338C32.1145 65.1867 32.6804 64.9812 33.6616 64.777C38.4105 63.7887 39.1437 63.0915 40.7453 61.0364C41.1126 60.5653 41.5288 60.0311 42.1052 59.3805L42.1058 59.3797C42.9645 58.4083 43.3571 58.5729 44.0693 58.8714C44.6465 59.1129 45.2085 59.8439 45.4365 60.6485C45.5443 61.0285 45.6656 61.7499 45.2692 62.311C41.9235 67.0451 37.0485 66.9843 33.5473 66.0988ZM58.3998 89.4718C52.5904 90.7298 50.5334 87.7341 49.178 84.3094C48.3031 82.0983 47.8732 72.1282 48.1782 61.1181C48.1822 60.9715 48.1616 60.83 48.1216 60.697C48.0869 60.4402 48.0334 60.1805 47.9593 59.919C47.5054 58.317 46.4 56.9769 45.0738 56.4214C44.5469 56.2007 43.5796 55.7959 42.4174 56.0963C42.6654 55.0642 43.0952 53.899 43.5611 52.637L43.7567 52.1059C43.9768 51.5075 44.2528 50.8875 44.545 50.2314C46.1234 46.6874 48.2852 41.8335 45.939 30.8676C45.0601 26.7605 42.1256 24.7549 37.6769 25.2206C35.0097 25.4995 32.5699 26.5871 31.3529 27.2106C31.0912 27.3447 30.8519 27.474 30.6283 27.6002C30.9679 23.4618 32.2513 15.728 37.0519 10.835C40.0742 7.75435 44.0996 6.23297 49.0041 6.31488C58.6676 6.47487 64.8644 11.4869 68.3617 15.6634C71.3751 19.2625 73.007 22.8878 73.6583 24.8429C68.7608 24.3398 65.4299 25.317 63.7411 27.7566C60.0677 33.0634 65.7509 43.364 68.4823 48.3143C68.9831 49.2217 69.4155 50.0057 69.5515 50.3388C70.4409 52.5174 71.5924 53.9718 72.4332 55.0336C72.6908 55.3589 72.9409 55.6744 73.131 55.9499C71.6478 56.3822 68.9833 57.3807 69.226 62.372C69.0303 64.8767 67.6375 76.6027 66.9302 80.7456C65.9964 86.2189 64.0034 88.2577 58.3998 89.4718ZM82.6491 61.4263C81.1324 62.138 78.594 62.6718 76.1826 62.7862C73.5192 62.9124 72.1635 62.4848 71.8446 62.2218C71.6947 59.1114 72.8405 58.7863 74.0528 58.4423C74.2434 58.388 74.4292 58.3355 74.6086 58.2721C74.7202 58.3638 74.8423 58.4548 74.9759 58.544C77.1166 59.972 80.9349 60.126 86.325 59.0016C86.3448 58.9974 86.3646 58.9935 86.3842 58.9895C85.6573 59.6765 84.4132 60.5985 82.6491 61.4263Z" fill="white"/>
</svg>
