<svg width="44" height="49" viewBox="0 0 44 49" fill="none" xmlns="http://www.w3.org/2000/svg">
<path d="M21.8419 3.21563C12.0794 3.21563 12.6967 7.91656 12.6967 7.91656V12.8013H21.9807V14.3325H8.99937C8.99937 14.3325 2.75 13.475 2.75 24.5077C2.75 35.5403 8.26787 35.0917 8.26787 35.0917H11.4537V29.9451C11.4537 29.9451 11.275 23.8002 16.8162 23.8002H26.114C26.114 23.8002 31.3005 23.8921 31.3005 18.2081V8.88125C31.3005 8.88125 32.087 3.19725 21.8927 3.19725L21.8419 3.21563ZM16.7104 6.48791C17.0404 6.47863 17.3655 6.57857 17.6446 6.77507C17.9236 6.97157 18.1441 7.25582 18.2781 7.59186C18.4121 7.9279 18.4536 8.30064 18.3973 8.66295C18.3411 9.02525 18.1896 9.36084 17.9621 9.62728C17.7346 9.89372 17.4412 10.079 17.1191 10.1598C16.797 10.2406 16.4607 10.2131 16.1526 10.081C15.8445 9.94885 15.5785 9.71792 15.3882 9.41742C15.198 9.11692 15.092 8.76034 15.0837 8.39278V8.36216C15.0837 8.11804 15.1269 7.87631 15.2108 7.65077C15.2947 7.42524 15.4177 7.22031 15.5727 7.04769C15.7277 6.87507 15.9117 6.73814 16.1142 6.64472C16.3167 6.5513 16.5338 6.50322 16.753 6.50322L16.7104 6.48791Z" fill="url(#paint0_linear_2271_87)"/>
<path d="M22.1169 45.7997C31.8794 45.7997 31.262 41.0834 31.262 41.0834V36.2141H21.9794V34.6828H35.0006C35.0006 34.6828 41.25 35.4607 41.25 24.4923C41.25 13.524 35.7321 13.9083 35.7321 13.9083H32.505V18.9875C32.505 18.9875 32.6837 25.1324 27.1425 25.1324H17.8406C17.8406 25.1324 12.65 25.0451 12.65 30.7291V40.1187C12.65 40.1187 11.8635 45.8027 22.0577 45.8027H22.1127L22.1169 45.7997ZM27.2484 42.5121C26.9183 42.5214 26.5932 42.4214 26.3141 42.2249C26.0351 42.0284 25.8146 41.7442 25.6806 41.4081C25.5467 41.0721 25.5052 40.6994 25.5614 40.3371C25.6177 39.9747 25.7691 39.6392 25.9966 39.3727C26.2241 39.1063 26.5175 38.921 26.8396 38.8402C27.1617 38.7594 27.4981 38.7869 27.8062 38.919C28.1143 39.0511 28.3803 39.2821 28.5705 39.5826C28.7608 39.8831 28.8667 40.2397 28.875 40.6072V40.6532C28.875 41.1462 28.6991 41.619 28.3861 41.9676C28.073 42.3162 27.6484 42.5121 27.2057 42.5121H27.2484Z" fill="url(#paint1_linear_2271_87)"/>
<defs>
<linearGradient id="paint0_linear_2271_87" x1="6.55484" y1="7.38507" x2="26.7779" y2="25.5034" gradientUnits="userSpaceOnUse">
<stop stop-color="#387EB8"/>
<stop offset="1" stop-color="#366994"/>
</linearGradient>
<linearGradient id="paint1_linear_2271_87" x1="17.3628" y1="20.6084" x2="40.1438" y2="38.4672" gradientUnits="userSpaceOnUse">
<stop stop-color="#FFE052"/>
<stop offset="1" stop-color="#FFC331"/>
</linearGradient>
</defs>
</svg>
