<svg width="755" height="518" viewBox="0 0 550 518" fill="none" xmlns="http://www.w3.org/2000/svg">
<g filter="url(#filter0_f_0_1)">
<path d="M259.423 211.939C347.625 263.82 364.121 399.15 296.268 514.206C228.414 629.262 101.906 680.475 13.7041 628.594C-74.4982 576.713 -90.9944 441.383 -23.1412 326.327C44.7121 211.271 171.22 160.058 259.423 211.939Z" fill="url(#paint0_radial_0_1)"/>
</g>
<g filter="url(#filter1_f_0_1)">
<path d="M417.472 195.646C532.539 214.782 606.231 347.779 582.067 492.705C557.903 637.63 445.035 739.603 329.968 720.467C214.901 701.332 141.209 568.334 165.373 423.409C189.537 278.484 302.406 176.511 417.472 195.646Z" fill="url(#paint1_radial_0_1)"/>
</g>
<g filter="url(#filter2_bi_0_1)">
<path d="M579.817 470.307C579.817 638.754 439.499 775.307 266.409 775.307C93.3183 775.307 -46.9993 638.754 -46.9993 470.307C-46.9993 301.86 93.3183 165.307 266.409 165.307C439.499 165.307 579.817 301.86 579.817 470.307Z" fill="url(#paint2_linear_0_1)" fill-opacity="0.46"/>
</g>
<g filter="url(#filter3_i_0_1)">
<path fill-rule="evenodd" clip-rule="evenodd" d="M-80.1251 571.697C-59.7298 629.367 -21.5488 671.687 29.2968 685.719C80.1423 699.75 134.624 683 181.709 643.952C228.785 604.912 268.216 543.746 288.661 469.659C309.106 395.572 306.624 322.84 286.233 265.182C265.838 207.513 227.657 165.192 176.811 151.161C125.965 137.13 71.4836 153.88 24.3986 192.928C-22.677 231.968 -62.1083 293.134 -82.5531 367.221C-102.998 441.308 -100.516 514.039 -80.1251 571.697ZM-85.445 366.422C-126.621 515.634 -75.6063 659.882 28.4987 688.61C132.604 717.339 250.377 619.668 291.553 470.457C332.728 321.246 281.714 176.998 177.609 148.269C73.504 119.541 -44.2693 217.211 -85.445 366.422Z" fill="url(#paint3_linear_0_1)"/>
</g>
<g filter="url(#filter4_i_0_1)">
<path fill-rule="evenodd" clip-rule="evenodd" d="M628.01 462.885C634.393 400.518 619.204 327.998 581.095 260.013C542.987 192.028 489.049 141.228 432.515 114.129C375.991 87.0339 316.601 83.5376 268.041 110.757C219.482 137.977 191.473 190.465 185.091 252.822C178.708 315.189 193.896 387.71 232.005 455.694C270.114 523.679 324.052 574.479 380.585 601.578C437.109 628.673 496.5 632.17 545.059 604.95C593.619 577.73 621.627 525.242 628.01 462.885ZM578.479 261.48C654.165 396.502 638.546 549.107 543.592 602.333C448.639 655.559 310.308 589.25 234.622 454.227C158.936 319.205 174.555 166.6 269.508 113.374C364.462 60.1486 502.792 126.458 578.479 261.48Z" fill="url(#paint4_linear_0_1)"/>
</g>
<g filter="url(#filter5_i_0_1)">
<path fill-rule="evenodd" clip-rule="evenodd" d="M-90.1251 554.697C-69.7298 612.367 -31.5488 654.687 19.2968 668.719C70.1423 682.75 124.624 666 171.709 626.952C218.785 587.912 258.216 526.746 278.661 452.659C299.106 378.572 296.624 305.84 276.233 248.182C255.838 190.513 217.657 148.192 166.811 134.161C115.965 120.13 61.4836 136.88 14.3986 175.928C-32.677 214.968 -72.1083 276.134 -92.5531 350.221C-112.998 424.308 -110.516 497.039 -90.1251 554.697ZM-95.445 349.422C-136.621 498.634 -85.6063 642.882 18.4987 671.61C122.604 700.339 240.377 602.668 281.553 453.457C322.728 304.246 271.714 159.998 167.609 131.269C63.504 102.541 -54.2693 200.211 -95.445 349.422Z" fill="url(#paint5_linear_0_1)"/>
</g>
<g filter="url(#filter6_i_0_1)">
<path fill-rule="evenodd" clip-rule="evenodd" d="M482.641 439.621C583.418 383.131 622.707 260.938 569.791 166.537C516.875 72.1366 392.136 41.8888 291.359 98.3792C190.582 154.87 151.293 277.062 204.209 371.463C257.125 465.864 381.864 496.111 482.641 439.621ZM567.174 168.004C619.185 260.79 580.682 381.226 481.174 437.004C381.667 492.783 258.837 462.782 206.826 369.996C154.815 277.21 193.319 156.775 292.826 100.996C392.333 45.2175 515.163 75.2181 567.174 168.004Z" fill="url(#paint6_linear_0_1)"/>
</g>
<g filter="url(#filter7_f_0_1)">
<path d="M344.748 70.4809C357.412 72.6139 365.516 87.4719 362.85 103.667C360.184 119.862 347.757 131.262 335.094 129.129C322.43 126.996 314.325 112.138 316.991 95.9426C319.657 79.7474 332.084 68.3478 344.748 70.4809Z" fill="url(#paint7_radial_0_1)"/>
</g>
<g filter="url(#filter8_f_0_1)">
<path d="M317.286 57.0659C331.344 65.4416 334.318 86.6974 323.928 104.542C313.538 122.387 293.719 130.063 279.66 121.687C265.601 113.311 262.628 92.0555 273.018 74.2109C283.408 56.3662 303.227 48.6902 317.286 57.0659Z" fill="url(#paint8_radial_0_1)"/>
</g>
<g filter="url(#filter9_bi_0_1)">
<path d="M362.585 94.0147C362.585 117.68 342.082 136.864 316.791 136.864C291.499 136.864 270.996 117.68 270.996 94.0147C270.996 70.3497 291.499 51.1655 316.791 51.1655C342.082 51.1655 362.585 70.3497 362.585 94.0147Z" fill="url(#paint9_linear_0_1)" fill-opacity="0.46"/>
</g>
<defs>
<filter id="filter0_f_0_1" x="-164.941" y="91.6826" width="603.008" height="657.168" filterUnits="userSpaceOnUse" color-interpolation-filters="sRGB">
<feFlood flood-opacity="0" result="BackgroundImageFix"/>
<feBlend mode="normal" in="SourceGraphic" in2="BackgroundImageFix" result="shape"/>
<feGaussianBlur stdDeviation="50" result="effect1_foregroundBlur_0_1"/>
</filter>
<filter id="filter1_f_0_1" x="36.7359" y="69.289" width="673.968" height="777.535" filterUnits="userSpaceOnUse" color-interpolation-filters="sRGB">
<feFlood flood-opacity="0" result="BackgroundImageFix"/>
<feBlend mode="normal" in="SourceGraphic" in2="BackgroundImageFix" result="shape"/>
<feGaussianBlur stdDeviation="62.0248" result="effect1_foregroundBlur_0_1"/>
</filter>
<filter id="filter2_bi_0_1" x="-73.9993" y="138.307" width="680.816" height="664" filterUnits="userSpaceOnUse" color-interpolation-filters="sRGB">
<feFlood flood-opacity="0" result="BackgroundImageFix"/>
<feGaussianBlur in="BackgroundImageFix" stdDeviation="13.5"/>
<feComposite in2="SourceAlpha" operator="in" result="effect1_backgroundBlur_0_1"/>
<feBlend mode="normal" in="SourceGraphic" in2="effect1_backgroundBlur_0_1" result="shape"/>
<feColorMatrix in="SourceAlpha" type="matrix" values="0 0 0 0 0 0 0 0 0 0 0 0 0 0 0 0 0 0 127 0" result="hardAlpha"/>
<feOffset/>
<feGaussianBlur stdDeviation="20"/>
<feComposite in2="hardAlpha" operator="arithmetic" k2="-1" k3="1"/>
<feColorMatrix type="matrix" values="0 0 0 0 1 0 0 0 0 1 0 0 0 0 1 0 0 0 0.8 0"/>
<feBlend mode="normal" in2="shape" result="effect2_innerShadow_0_1"/>
</filter>
<filter id="filter3_i_0_1" x="-99.7076" y="143.256" width="405.523" height="554.367" filterUnits="userSpaceOnUse" color-interpolation-filters="sRGB">
<feFlood flood-opacity="0" result="BackgroundImageFix"/>
<feBlend mode="normal" in="SourceGraphic" in2="BackgroundImageFix" result="shape"/>
<feColorMatrix in="SourceAlpha" type="matrix" values="0 0 0 0 0 0 0 0 0 0 0 0 0 0 0 0 0 0 127 0" result="hardAlpha"/>
<feOffset dy="4"/>
<feGaussianBlur stdDeviation="2"/>
<feComposite in2="hardAlpha" operator="arithmetic" k2="-1" k3="1"/>
<feColorMatrix type="matrix" values="0 0 0 0 0.949109 0 0 0 0 0.215206 0 0 0 0 0.964086 0 0 0 1 0"/>
<feBlend mode="normal" in2="shape" result="effect1_innerShadow_0_1"/>
</filter>
<filter id="filter4_i_0_1" x="183.679" y="91.9939" width="445.743" height="535.719" filterUnits="userSpaceOnUse" color-interpolation-filters="sRGB">
<feFlood flood-opacity="0" result="BackgroundImageFix"/>
<feBlend mode="normal" in="SourceGraphic" in2="BackgroundImageFix" result="shape"/>
<feColorMatrix in="SourceAlpha" type="matrix" values="0 0 0 0 0 0 0 0 0 0 0 0 0 0 0 0 0 0 127 0" result="hardAlpha"/>
<feOffset dy="4"/>
<feGaussianBlur stdDeviation="2"/>
<feComposite in2="hardAlpha" operator="arithmetic" k2="-1" k3="1"/>
<feColorMatrix type="matrix" values="0 0 0 0 0.949109 0 0 0 0 0.215206 0 0 0 0 0.964086 0 0 0 1 0"/>
<feBlend mode="normal" in2="shape" result="effect1_innerShadow_0_1"/>
</filter>
<filter id="filter5_i_0_1" x="-109.708" y="126.256" width="405.523" height="554.367" filterUnits="userSpaceOnUse" color-interpolation-filters="sRGB">
<feFlood flood-opacity="0" result="BackgroundImageFix"/>
<feBlend mode="normal" in="SourceGraphic" in2="BackgroundImageFix" result="shape"/>
<feColorMatrix in="SourceAlpha" type="matrix" values="0 0 0 0 0 0 0 0 0 0 0 0 0 0 0 0 0 0 127 0" result="hardAlpha"/>
<feOffset dy="4"/>
<feGaussianBlur stdDeviation="2"/>
<feComposite in2="hardAlpha" operator="arithmetic" k2="-1" k3="1"/>
<feColorMatrix type="matrix" values="0 0 0 0 0.949109 0 0 0 0 0.215206 0 0 0 0 0.964086 0 0 0 1 0"/>
<feBlend mode="normal" in2="shape" result="effect1_innerShadow_0_1"/>
</filter>
<filter id="filter6_i_0_1" x="180.65" y="69.9519" width="412.701" height="402.096" filterUnits="userSpaceOnUse" color-interpolation-filters="sRGB">
<feFlood flood-opacity="0" result="BackgroundImageFix"/>
<feBlend mode="normal" in="SourceGraphic" in2="BackgroundImageFix" result="shape"/>
<feColorMatrix in="SourceAlpha" type="matrix" values="0 0 0 0 0 0 0 0 0 0 0 0 0 0 0 0 0 0 127 0" result="hardAlpha"/>
<feOffset dy="4"/>
<feGaussianBlur stdDeviation="2"/>
<feComposite in2="hardAlpha" operator="arithmetic" k2="-1" k3="1"/>
<feColorMatrix type="matrix" values="0 0 0 0 0.949109 0 0 0 0 0.215206 0 0 0 0 0.964086 0 0 0 1 0"/>
<feBlend mode="normal" in2="shape" result="effect1_innerShadow_0_1"/>
</filter>
<filter id="filter7_f_0_1" x="306.484" y="60.2244" width="66.874" height="79.1611" filterUnits="userSpaceOnUse" color-interpolation-filters="sRGB">
<feFlood flood-opacity="0" result="BackgroundImageFix"/>
<feBlend mode="normal" in="SourceGraphic" in2="BackgroundImageFix" result="shape"/>
<feGaussianBlur stdDeviation="5" result="effect1_foregroundBlur_0_1"/>
</filter>
<filter id="filter8_f_0_1" x="256.818" y="43.6753" width="83.3096" height="91.4023" filterUnits="userSpaceOnUse" color-interpolation-filters="sRGB">
<feFlood flood-opacity="0" result="BackgroundImageFix"/>
<feBlend mode="normal" in="SourceGraphic" in2="BackgroundImageFix" result="shape"/>
<feGaussianBlur stdDeviation="5" result="effect1_foregroundBlur_0_1"/>
</filter>
<filter id="filter9_bi_0_1" x="243.996" y="24.1655" width="145.589" height="139.698" filterUnits="userSpaceOnUse" color-interpolation-filters="sRGB">
<feFlood flood-opacity="0" result="BackgroundImageFix"/>
<feGaussianBlur in="BackgroundImageFix" stdDeviation="13.5"/>
<feComposite in2="SourceAlpha" operator="in" result="effect1_backgroundBlur_0_1"/>
<feBlend mode="normal" in="SourceGraphic" in2="effect1_backgroundBlur_0_1" result="shape"/>
<feColorMatrix in="SourceAlpha" type="matrix" values="0 0 0 0 0 0 0 0 0 0 0 0 0 0 0 0 0 0 127 0" result="hardAlpha"/>
<feOffset/>
<feGaussianBlur stdDeviation="20"/>
<feComposite in2="hardAlpha" operator="arithmetic" k2="-1" k3="1"/>
<feColorMatrix type="matrix" values="0 0 0 0 1 0 0 0 0 1 0 0 0 0 1 0 0 0 0.8 0"/>
<feBlend mode="normal" in2="shape" result="effect2_innerShadow_0_1"/>
</filter>
<radialGradient id="paint0_radial_0_1" cx="0" cy="0" r="1" gradientUnits="userSpaceOnUse" gradientTransform="translate(207.543 462.017) rotate(-149.536) scale(387.724 506.107)">
<stop stop-color="#3CF3FF"/>
<stop offset="0.446" stop-color="#71F7FF" stop-opacity="0.724"/>
<stop offset="1" stop-color="white" stop-opacity="0"/>
</radialGradient>
<radialGradient id="paint1_radial_0_1" cx="0" cy="0" r="1" gradientUnits="userSpaceOnUse" gradientTransform="translate(466.319 473.456) rotate(-170.558) scale(441.973 556.698)">
<stop stop-color="#FA00FF"/>
<stop offset="0.446" stop-color="#F237F6"/>
<stop offset="1" stop-color="white" stop-opacity="0"/>
</radialGradient>
<linearGradient id="paint2_linear_0_1" x1="266.409" y1="165.307" x2="266.409" y2="775.307" gradientUnits="userSpaceOnUse">
<stop stop-color="white"/>
<stop offset="1" stop-color="white" stop-opacity="0"/>
</linearGradient>
<linearGradient id="paint3_linear_0_1" x1="-85.5798" y1="366.911" x2="542.75" y2="540.303" gradientUnits="userSpaceOnUse">
<stop stop-color="#F237F6"/>
<stop offset="0.151" stop-color="#F237F6" stop-opacity="0"/>
</linearGradient>
<linearGradient id="paint4_linear_0_1" x1="578.726" y1="261.922" x2="5.63247" y2="583.168" gradientUnits="userSpaceOnUse">
<stop stop-color="#F237F6"/>
<stop offset="0.131" stop-color="#F237F6" stop-opacity="0"/>
</linearGradient>
<linearGradient id="paint5_linear_0_1" x1="-95.5798" y1="349.911" x2="532.75" y2="523.303" gradientUnits="userSpaceOnUse">
<stop stop-color="#F237F6"/>
<stop offset="0.151" stop-color="#F237F6" stop-opacity="0"/>
</linearGradient>
<linearGradient id="paint6_linear_0_1" x1="567.344" y1="168.308" x2="-33.2353" y2="504.962" gradientUnits="userSpaceOnUse">
<stop stop-color="#F237F6"/>
<stop offset="0.131" stop-color="#F237F6" stop-opacity="0"/>
</linearGradient>
<radialGradient id="paint7_radial_0_1" cx="0" cy="0" r="1" gradientUnits="userSpaceOnUse" gradientTransform="translate(350.112 101.521) rotate(-170.439) scale(48.6584 62.1886)">
<stop stop-color="#FA00FF"/>
<stop offset="0.446" stop-color="#F237F6"/>
<stop offset="1" stop-color="white" stop-opacity="0"/>
</radialGradient>
<radialGradient id="paint8_radial_0_1" cx="0" cy="0" r="1" gradientUnits="userSpaceOnUse" gradientTransform="translate(309.786 96.1168) rotate(-149.215) scale(62.0046 78.2349)">
<stop stop-color="#3CF3FF"/>
<stop offset="0.446" stop-color="#71F7FF" stop-opacity="0.724"/>
<stop offset="1" stop-color="white" stop-opacity="0"/>
</radialGradient>
<linearGradient id="paint9_linear_0_1" x1="316.791" y1="51.1655" x2="316.791" y2="136.864" gradientUnits="userSpaceOnUse">
<stop stop-color="white"/>
<stop offset="1" stop-color="white" stop-opacity="0"/>
</linearGradient>
</defs>
</svg>
