<svg width="391" height="380" viewBox="0 0 391 380" fill="none" xmlns="http://www.w3.org/2000/svg">
<g clip-path="url(#clip0_0_1)">
<path fill-rule="evenodd" clip-rule="evenodd" d="M184.548 122.667C184.548 118.187 184.548 112 184.548 104L206.752 104C212.603 104 203.846 104 209.601 104C209.601 108.333 209.601 116.41 209.601 120.889V171.556H274.264C280.115 171.556 280.019 171.556 291.53 171.556C296.269 171.556 291.53 171.556 295 171.556L295 188.444C295 194.333 295 187.444 295 194.333C288.398 194.333 278.338 194.333 272.486 194.333H241.001H209.601V239.111C209.601 243.59 209.601 241.946 209.601 250C209.601 256 209.601 252.333 209.601 256H184.69C184.548 248.667 184.548 255.946 184.548 250C184.548 241.947 184.548 243.59 184.548 239.111V216.333V194.333H116.5C110.649 194.333 107.501 194.333 102 194.333C102 183.333 102 192.479 102 188V171.556C107.501 171.556 92.1247 171.556 97.8801 171.556C104.313 171.556 110.649 171.556 116.5 171.556H184.548V146.333V122.667Z" fill="#040863" fill-opacity="0.25"/>
</g>
<circle cx="196" cy="190" r="190" fill="#A8AAE7" fill-opacity="0.25"/>
<defs>
<clipPath id="clip0_0_1">
<rect width="391" height="304" fill="white" transform="translate(0 28)"/>
</clipPath>
</defs>
</svg>
