<svg width="32" height="33" viewBox="0 0 32 33" fill="none" xmlns="http://www.w3.org/2000/svg">
<circle cx="16" cy="16.5" r="16" fill="#AAE4B1"/>
<path d="M19.0628 15.448C19.4022 15.1371 19.4253 14.61 19.1145 14.2706C18.8037 13.9312 18.2765 13.908 17.9371 14.2189L14.8604 17.0367L14.0628 16.3062C13.7234 15.9954 13.1963 16.0185 12.8854 16.3579C12.5746 16.6973 12.5977 17.2245 12.9371 17.5353L14.2976 18.7813C14.6161 19.073 15.1047 19.073 15.4232 18.7813L19.0628 15.448Z" fill="#136317"/>
<path fill-rule="evenodd" clip-rule="evenodd" d="M16 8.16675C11.3976 8.16675 7.66663 11.8977 7.66663 16.5001C7.66663 21.1025 11.3976 24.8334 16 24.8334C20.6023 24.8334 24.3333 21.1025 24.3333 16.5001C24.3333 11.8977 20.6023 8.16675 16 8.16675ZM9.33329 16.5001C9.33329 12.8182 12.3181 9.83341 16 9.83341C19.6819 9.83341 22.6666 12.8182 22.6666 16.5001C22.6666 20.182 19.6819 23.1667 16 23.1667C12.3181 23.1667 9.33329 20.182 9.33329 16.5001Z" fill="#136317"/>
</svg>
