<svg width="32" height="33" viewBox="0 0 32 33" fill="none" xmlns="http://www.w3.org/2000/svg">
<circle cx="16" cy="16.5" r="16" fill="#DDDFE9"/>
<path d="M11 14.4167C11 11.8854 13.0521 9.83341 15.5834 9.83341C17.8256 9.83341 19.6934 11.4444 20.0892 13.5723C20.1447 13.8707 20.3581 14.1153 20.6462 14.2109C22.3051 14.7611 23.5 16.3255 23.5 18.1667C23.5 20.4679 21.6346 22.3334 19.3334 22.3334C18.8731 22.3334 18.5 22.7065 18.5 23.1667C18.5 23.627 18.8731 24.0001 19.3334 24.0001C22.555 24.0001 25.1667 21.3884 25.1667 18.1667C25.1667 15.7564 23.7052 13.6892 21.622 12.7997C20.9091 10.1317 18.4765 8.16675 15.5834 8.16675C12.1316 8.16675 9.33337 10.965 9.33337 14.4167C9.33337 14.5003 9.33502 14.5835 9.33828 14.6664C7.84211 15.5296 6.83337 17.1463 6.83337 19.0001C6.83337 21.7615 9.07195 24.0001 11.8334 24.0001C12.2936 24.0001 12.6667 23.627 12.6667 23.1667C12.6667 22.7065 12.2936 22.3334 11.8334 22.3334C9.99242 22.3334 8.50004 20.841 8.50004 19.0001C8.50004 17.619 9.34019 16.4321 10.5406 15.9265C10.8879 15.7802 11.0938 15.4189 11.0427 15.0454C11.0146 14.8403 11 14.6305 11 14.4167Z" fill="#555777"/>
<path d="M15.4464 18.3772C15.7621 18.0966 16.2379 18.0966 16.5537 18.3772L17.8037 19.4884C18.1477 19.7941 18.1786 20.3208 17.8729 20.6648C17.6054 20.9658 17.1688 21.0271 16.8334 20.8331V24.8334C16.8334 25.2937 16.4603 25.6667 16 25.6667C15.5398 25.6667 15.1667 25.2937 15.1667 24.8334V20.8331C14.8313 21.0271 14.3947 20.9658 14.1272 20.6648C13.8214 20.3208 13.8524 19.7941 14.1964 19.4884L15.4464 18.3772Z" fill="#555777"/>
</svg>
