<svg width="51" height="51" viewBox="0 0 51 51" fill="none" xmlns="http://www.w3.org/2000/svg">
<path d="M50.7236 11.22H49.8566C48.7846 11.22 47.7748 11.7198 47.123 12.5705L38.249 24.175L29.375 12.5705C28.7252 11.7198 27.7144 11.22 26.6434 11.22H25.7764L36.9668 25.8529L25.5367 40.8H26.4037C27.4757 40.8 28.4855 40.3002 29.1363 39.4495L38.25 27.5318L47.3637 39.4495C48.0145 40.3002 49.0243 40.8 50.0963 40.8H50.9633L39.5332 25.8529L50.7236 11.22ZM21.7148 34.9268C19.1097 38.8855 13.9811 40.9142 9.078 39.1252C4.76442 37.5513 2.04 33.2632 2.04 28.6712V27.54H14.28H25.5V23.3233C25.5 16.6882 20.5856 10.8793 13.9791 10.2581C6.39846 9.54516 0 15.5142 0 22.95V28.6345C0 34.1129 3.2793 39.2057 8.43438 41.0611C15.1694 43.4846 22.2533 39.8677 24.6483 33.66H23.9975C23.0683 33.66 22.2248 34.1506 21.7148 34.9268ZM2.04 22.95C2.04 17.0442 6.8442 12.24 12.75 12.24C18.6558 12.24 23.46 17.0442 23.46 22.95V25.5H2.04V22.95Z" fill="#FBF3F3"/>
</svg>
