<svg width="62" height="66" viewBox="0 0 62 66" fill="none" xmlns="http://www.w3.org/2000/svg">
<g clip-path="url(#clip0_2276_15)">
<path d="M31 2.34661C46.9032 2.34661 59.7956 16.0707 59.7956 33C59.7956 49.9293 46.9032 63.6534 31 63.6534C15.0968 63.6534 2.20439 49.9293 2.20439 33C2.20439 16.0707 15.0968 2.34661 31 2.34661ZM31 0C13.9066 0 0 14.8039 0 33C0 51.1961 13.9066 66 31 66C48.0934 66 62 51.1961 62 33C62 14.8039 48.0934 0 31 0ZM36.0448 6.58041C33.5188 6.09159 27.4105 15.9671 25.39 21.9806C25.2364 22.4366 24.8848 24.1073 24.8848 24.5471C24.8848 24.5471 26.4665 28.1707 26.9053 29.0204C26.1705 28.6131 24.6474 25.4739 24.6474 25.4739C23.9126 26.9651 23.2083 33.8116 23.4379 35.0829C23.4379 35.0829 25.0756 37.677 25.7114 38.3256C24.8388 38.016 23.3692 35.9138 23.3692 35.9138C23.0935 36.8182 23.1473 38.7 23.2774 39.336C24.3796 41.0471 25.8492 41.2428 25.8492 41.2428C25.8492 41.2428 24.2418 58.3051 26.6757 59.5761C28.1914 59.234 28.5587 40.5093 28.5587 40.5093C28.5587 40.5093 30.3957 40.656 30.8092 40.1672C31.743 39.4827 33.9155 32.3751 33.9474 31.3495C33.9474 31.3495 31.4262 31.8527 30.1967 32.3611C31.1233 31.3815 34.0835 30.7235 34.0835 30.7235C34.8864 29.6977 36.5759 22.7192 36.7461 20.568C36.7888 20.0284 36.8873 19.3674 36.811 18.4029C36.811 18.4029 34.4035 18.9642 33.9014 18.77C34.411 18.7089 36.8714 17.7027 36.8714 17.7027C37.3075 13.5228 37.4424 6.85111 36.0448 6.58041ZM27.234 50.8445C27.0414 55.8708 26.9206 57.2908 26.7218 58.476C26.63 58.6969 26.5382 58.733 26.4461 58.4515C25.6041 54.3286 25.6653 23.2761 35.264 9.14719C29.6815 19.999 27.1422 40.8223 27.234 50.8445Z" fill="#FFF5F5"/>
</g>
<defs>
<clipPath id="clip0_2276_15">
<rect width="62" height="66" fill="white"/>
</clipPath>
</defs>
</svg>
