<svg width="72" height="67" viewBox="0 0 72 67" fill="none" xmlns="http://www.w3.org/2000/svg">
<path d="M70.6375 30.5164L39.2061 1.2667C38.7762 0.865197 38.2653 0.546629 37.7028 0.32926C37.1402 0.111892 36.5371 0 35.928 0C35.3189 0 34.7158 0.111892 34.1533 0.32926C33.5907 0.546629 33.0798 0.865197 32.6499 1.2667L26.1219 7.34155L34.4008 15.0458C35.3771 14.7366 36.427 14.6888 37.431 14.9079C38.435 15.127 39.3527 15.6042 40.0795 16.285C40.8062 16.9658 41.3129 17.823 41.5417 18.7587C41.7705 19.6944 41.7122 20.6712 41.3736 21.5776L49.3439 28.9947C50.5353 28.6138 51.8309 28.6244 53.015 29.0246C54.199 29.4248 55.1999 30.1904 55.851 31.194C56.502 32.1976 56.7638 33.3785 56.5928 34.5399C56.4218 35.7013 55.8283 36.7732 54.9112 37.5768C53.9941 38.3805 52.8088 38.8674 51.5527 38.9565C50.2966 39.0455 49.0457 38.7314 48.0083 38.0663C46.9709 37.4013 46.2097 36.4256 45.8516 35.3017C45.4934 34.1777 45.56 32.9736 46.0401 31.8898L38.5968 24.9632V43.1877C39.7243 43.7076 40.6264 44.5712 41.1528 45.6348C41.6792 46.6985 41.7981 47.8978 41.4898 49.0331C41.1814 50.1684 40.4644 51.1711 39.4581 51.8742C38.4519 52.5773 37.2171 52.9383 35.9596 52.8972C34.702 52.8561 33.4976 52.4152 32.5468 51.6481C31.5961 50.881 30.9565 49.8339 30.7346 48.6813C30.5126 47.5287 30.7217 46.3401 31.3271 45.3135C31.9324 44.2869 32.8974 43.4843 34.0614 43.0394V24.6473C33.388 24.3902 32.776 24.0117 32.2605 23.5335C31.745 23.0553 31.3363 22.4869 31.0578 21.8611C30.7794 21.2353 30.6368 20.5644 30.6382 19.887C30.6397 19.2097 30.7851 18.5393 31.0661 17.9145L22.9158 10.3251L1.36247 30.3896C0.930635 30.7898 0.587979 31.2653 0.354169 31.789C0.120359 32.3128 0 32.8743 0 33.4414C0 34.0085 0.120359 34.57 0.354169 35.0937C0.587979 35.6174 0.930635 36.093 1.36247 36.4932L32.7939 65.7333C33.2238 66.1348 33.7347 66.4534 34.2972 66.6707C34.8598 66.8881 35.4629 67 36.072 67C36.6811 67 37.2842 66.8881 37.8467 66.6707C38.4093 66.4534 38.9202 66.1348 39.3501 65.7333L70.6375 36.6104C71.0694 36.2102 71.412 35.7347 71.6458 35.211C71.8796 34.6873 72 34.1257 72 33.5586C72 32.9915 71.8796 32.43 71.6458 31.9063C71.412 31.3826 71.0694 30.907 70.6375 30.5068" fill="#DD4C35"/>
<path d="M26.1219 7.34155L34.4008 15.0458C35.3771 14.7366 36.427 14.6888 37.431 14.9079C38.435 15.127 39.3527 15.6042 40.0795 16.285C40.8062 16.9658 41.3129 17.823 41.5417 18.7587C41.7705 19.6944 41.7122 20.6712 41.3736 21.5776L49.3439 28.9947C50.5353 28.6138 51.8309 28.6244 53.015 29.0246C54.199 29.4248 55.1999 30.1904 55.851 31.194C56.502 32.1976 56.7638 33.3785 56.5928 34.5399C56.4218 35.7013 55.8283 36.7732 54.9112 37.5768C53.9941 38.3805 52.8088 38.8674 51.5527 38.9565C50.2966 39.0455 49.0457 38.7314 48.0083 38.0663C46.9709 37.4013 46.2097 36.4256 45.8516 35.3017C45.4934 34.1777 45.56 32.9736 46.0401 31.8898L38.5968 24.9632V43.1877C39.7243 43.7076 40.6264 44.5712 41.1528 45.6348C41.6792 46.6985 41.7981 47.8978 41.4898 49.0331C41.1814 50.1684 40.4644 51.1711 39.4581 51.8742C38.4519 52.5773 37.2171 52.9383 35.9596 52.8972C34.702 52.8561 33.4976 52.4152 32.5468 51.6481C31.5961 50.881 30.9565 49.8339 30.7346 48.6813C30.5126 47.5287 30.7217 46.3401 31.3271 45.3135C31.9324 44.2869 32.8974 43.4843 34.0614 43.0394V24.6473C33.388 24.3902 32.776 24.0117 32.2605 23.5335C31.745 23.0553 31.3363 22.4869 31.0578 21.8611C30.7794 21.2353 30.6368 20.5644 30.6382 19.887C30.6397 19.2097 30.7851 18.5393 31.0661 17.9145L22.9158 10.3251" fill="white"/>
</svg>
