<svg width="185" height="47" viewBox="0 0 185 47" fill="none" xmlns="http://www.w3.org/2000/svg">
<path fill-rule="evenodd" clip-rule="evenodd" d="M0.0285606 21.0352C-0.593361 32.1293 9.13408 38.7538 10.4517 39.5985C11.3882 41.5339 11.2986 44.8318 11.2986 44.8318L12.6657 45.2433C12.6657 45.2433 12.3989 42.0117 12.7992 40.4839C12.9112 40.0084 13.1818 39.5932 13.5036 39.2458C13.7392 39.1001 14.3563 38.7013 15.1697 38.0456C15.1869 38.0374 15.2008 38.0309 15.2112 38.0261L15.2332 38.0161L15.2315 37.9957C18.4684 35.3665 24.6684 28.7631 22.5689 17.9503C20.479 9.83414 16.1923 5.94028 14.0359 3.98148C13.4058 3.40903 12.9575 3.00183 12.7992 2.70282C12.0323 1.76276 11.2986 0.117645 11.2986 0.117645L11.2998 0.189636C11.2782 0.108002 11.2556 0.044342 11.2321 0C11.1654 0.940063 11.132 1.29272 10.1315 2.23279C8.59784 3.2905 0.661865 9.13678 0.0285606 21.0352ZM171.917 19.7131C171.917 19.5369 172.083 19.2137 172.25 19.1842C172.75 19.0963 173.417 19.0963 173.65 19.1254C177.018 19.1254 179.285 20.2125 179.285 23.0622C179.285 24.3255 178.719 25.4714 177.518 26.0003C177.051 26.1765 176.218 26.3527 174.784 26.3527C173.75 26.3527 172.55 26.3232 172.05 26.2939C171.95 26.2939 171.85 26.1765 171.85 26.1176C171.85 24.0025 171.883 20.8882 171.917 19.7131ZM174.017 27.7922C178.418 27.7922 180.853 29.4082 180.853 32.3166C180.853 35.3427 178.552 36.6351 175.918 36.6351C174.984 36.6351 173.617 36.5766 173.017 36.2827C172.45 36.0477 171.983 35.2545 171.917 34.6962C171.836 33.6492 171.842 31.2719 171.847 29.2979C171.849 28.835 171.85 28.3943 171.85 27.998C171.85 27.9098 171.983 27.851 172.083 27.8216C172.362 27.7725 173.383 27.7849 173.829 27.7903H173.831C173.919 27.7914 173.984 27.7922 174.017 27.7922ZM165.87 17.5838C165.671 17.5747 165.536 17.5685 165.448 17.5685C165.248 17.6859 164.681 18.6848 164.848 18.8318C165.614 18.9198 166.548 19.0374 167.115 19.1254C167.849 19.3019 168.215 19.5957 168.249 20.5064C168.269 21.2332 168.265 22.4322 168.258 24.0826C168.254 25.1002 168.249 26.2894 168.249 27.6454C168.249 30.2306 168.249 33.8737 168.182 34.9021C168.048 36.1065 167.949 36.3416 167.048 36.5472C166.415 36.7234 165.948 36.7528 165.348 36.7822C165.114 36.9584 164.614 38.0161 164.881 38.1043C166.484 38.0671 168.9 38.1239 170.89 38.1707C172.046 38.1979 173.059 38.2217 173.684 38.2217C175.918 38.2217 178.118 37.9867 179.886 37.311C182.787 36.1945 184.787 34.4026 184.787 31.5821C184.787 28.7031 182.32 27.1754 179.519 26.5583C179.419 26.5289 179.419 26.4703 179.519 26.4409C181.486 25.7064 182.987 24.2081 182.987 22.3277C182.987 18.5086 178.985 17.5979 176.085 17.5979C174.909 17.5979 173.84 17.6124 172.764 17.6269C171.673 17.6417 170.575 17.6565 169.349 17.6565C167.463 17.6565 166.422 17.609 165.871 17.5838H165.87H165.87H165.87ZM149.976 36.6351C148.576 36.6351 147.009 36.4001 146.208 35.8421C145.708 35.5483 145.475 34.8727 145.475 34.4317C145.408 33.9911 145.408 30.172 145.408 27.4398C145.408 24.7955 145.408 20.2714 145.475 19.6837C145.475 19.5369 145.708 19.2725 145.808 19.2137C146.242 19.0374 146.942 19.0081 147.675 19.0081C150.143 19.0081 152.277 19.3898 153.944 20.3008C156.878 21.8871 158.312 24.5899 158.312 27.9098C158.312 31.3765 157.079 33.5505 155.311 34.9606C153.577 36.3416 151.777 36.6351 149.976 36.6351ZM140.183 17.6026L140.179 17.6025C139.498 17.5843 138.907 17.5685 138.639 17.5685C138.473 17.7447 137.872 18.6554 138.006 18.8613C138.934 18.9487 139.598 19.0655 140.097 19.1532L140.099 19.1534L140.1 19.1536L140.106 19.1548C141.107 19.3313 141.607 19.5957 141.707 20.6237C141.758 21.574 141.75 24.0748 141.744 26.0735V26.0749V26.082C141.742 26.6755 141.74 27.2244 141.74 27.6748C141.74 28.2391 141.742 28.7899 141.743 29.3265L141.743 29.3365C141.748 31.4218 141.753 33.2917 141.674 34.9021C141.574 35.9889 141.44 36.3122 140.74 36.5472C140.306 36.694 140.073 36.7234 139.206 36.8116C138.939 36.841 138.506 37.8693 138.673 38.1335H138.706C139.844 38.1438 141.065 38.1578 142.268 38.1716L142.274 38.1717C144.488 38.1971 146.641 38.2217 148.109 38.2217C152.377 38.2217 155.378 37.3405 157.679 35.8421C159.979 34.3732 162.28 31.8171 162.28 27.381C162.28 24.2669 161.013 21.7109 158.579 19.8599C156.578 18.3618 153.777 17.5685 150.443 17.5685C148.146 17.5685 146.676 17.598 145.438 17.6228C144.537 17.6409 143.759 17.6565 142.874 17.6565C142.202 17.6565 141.11 17.6273 140.183 17.6026ZM96.1256 36.4883C96.8594 36.7822 97.4596 36.8996 98.2932 36.9878C98.4267 37.2228 98.3596 38.0749 98.193 38.2511C98.0133 38.2511 97.7428 38.2411 97.3839 38.2278C96.6776 38.2017 95.6292 38.1629 94.2584 38.1629C93.3121 38.1629 92.5376 38.1913 91.8679 38.2159C91.3578 38.2346 90.9086 38.2511 90.4904 38.2511C90.3238 38.0455 90.2571 37.1346 90.4904 36.929C91.1908 36.8704 91.791 36.7528 92.0244 36.6646C92.5245 36.5178 92.6246 36.2239 92.6246 35.0488C92.6246 34.5654 92.6279 34.066 92.6312 33.5677C92.6427 31.8252 92.654 30.0967 92.5245 29.1143C92.4244 28.5561 92.191 27.7922 91.4576 27.2636C90.9241 26.8815 90.2237 26.5877 89.1567 26.5877C88.0564 26.5877 86.8226 26.9992 86.0557 27.5866C85.8558 27.7628 85.6558 28.0566 85.6558 28.6737C85.6558 30.9065 85.6558 34.1967 85.7222 35.7539C85.7556 36.371 85.9225 36.6351 86.5228 36.7528C86.9561 36.8704 87.4228 36.929 88.0564 36.9584C88.1899 37.164 88.1232 38.0455 87.8898 38.2805C87.6991 38.2805 87.4441 38.2705 87.1059 38.2572H87.1055H87.1047H87.1037C86.437 38.231 85.4471 38.1923 83.9886 38.1923C82.9061 38.1923 81.6712 38.2326 80.8717 38.2588C80.4889 38.2713 80.2058 38.2805 80.0871 38.2805C79.8871 38.0749 79.8871 37.1346 80.0871 36.9584C80.5285 36.9126 80.8487 36.8491 81.1892 36.7816L81.1925 36.7809L81.1953 36.7804C81.2901 36.7616 81.3864 36.7425 81.4875 36.7234L81.4211 36.7528C82.0213 36.6351 82.2547 36.371 82.288 35.6365C82.3879 33.7855 82.3879 30.407 82.3545 28.2036L82.3546 28.1748L82.3549 28.1373C82.3575 27.8867 82.3605 27.5966 82.0544 27.381C81.5877 27.1165 80.9874 26.8521 80.0874 26.6171H80.054C79.2204 26.3821 79.4204 25.7064 80.2206 25.5594C81.3209 25.4714 84.3218 24.8543 85.389 24.3843C85.389 24.3843 85.6558 24.5899 85.6224 25.0014C85.6172 25.0698 85.6112 25.1431 85.6048 25.2194L85.5878 25.4191C85.5562 25.7864 85.5223 26.181 85.5223 26.4115C85.4889 26.7347 85.7556 26.5288 85.789 26.4997C87.4228 25.2658 89.3901 24.3843 90.8573 24.3843C92.5245 24.3843 93.8248 25.0305 94.7252 26.1471C95.4923 27.1165 95.7921 28.4972 95.7921 30.0838V30.0844C95.7921 32.0528 95.7921 34.9901 95.8589 36.0183C95.8589 36.136 96.0258 36.4295 96.1256 36.4883ZM104.662 28.8499C104.662 26.9698 105.762 25.7653 107.529 25.7653C109.797 25.7653 111.164 27.2342 111.164 29.6726C111.164 30.7888 110.73 31.8466 110.097 32.3754C109.697 32.7866 108.83 32.9628 108.363 32.9628C105.629 32.9628 104.662 30.7594 104.662 28.8499ZM105.862 39.0738C106.162 38.9268 106.629 38.7505 107.296 38.7505C109.33 38.7505 111.03 38.9268 111.964 39.2794C113.264 39.6906 113.898 40.4251 113.898 41.5416C113.898 43.1279 112.397 44.7439 108.996 44.7439C107.296 44.7439 105.962 44.3912 104.995 43.6568C104.195 43.0691 103.828 42.3935 103.828 41.5416C103.828 40.6307 104.462 39.8668 105.862 39.0738ZM102.761 45.1551C104.028 46.007 105.495 46.389 107.529 46.389C109.096 46.389 110.53 46.0952 111.964 45.5369C114.898 44.2739 116.666 42.2467 116.666 40.0727C116.666 38.6329 115.698 37.4284 114.165 36.929C113.064 36.606 110.697 36.4589 108.796 36.3416C108.634 36.3273 108.48 36.3199 108.33 36.3128C108.171 36.3052 108.017 36.2979 107.863 36.2827C106.429 36.1945 106.129 35.6656 106.129 35.225C106.129 34.7256 106.796 34.4317 107.062 34.3732H107.096L107.104 34.3729L107.119 34.3718C107.133 34.3706 107.152 34.3687 107.175 34.3665H107.176H107.176C107.226 34.3618 107.293 34.3554 107.362 34.3506C107.388 34.3488 107.414 34.3472 107.44 34.346C107.454 34.3454 107.468 34.3449 107.481 34.3445C107.498 34.344 107.514 34.3438 107.529 34.3438C107.83 34.3144 107.963 34.3144 107.996 34.3144C109.463 34.1967 110.764 33.7267 111.897 32.9922C113.064 32.1989 114.165 31.1415 114.165 28.7325C114.165 28.5266 114.031 27.7336 113.965 27.4692L113.931 27.4104L113.924 27.3901L113.917 27.3726C113.89 27.3046 113.87 27.2548 113.898 27.2048L114.031 27.1459C114.031 27.1459 114.298 27.2048 114.898 27.2636H115.065C115.665 27.2636 116.265 27.0283 116.532 26.7053C116.866 26.2938 116.999 25.7358 116.966 25.3538C116.932 24.972 116.866 24.8249 116.832 24.7664C116.365 25.1776 115.799 25.53 114.498 25.53C113.631 25.53 112.998 25.442 112.331 25.2364L112.146 25.1792C111.008 24.8253 110.151 24.559 108.663 24.5313H108.563C107.029 24.5313 104.695 25.3244 103.761 25.9709C102.394 26.8227 101.628 28.1743 101.628 29.6726C101.628 31.9639 102.795 33.4917 105.129 34.1676C105.195 34.1967 105.262 34.2556 105.262 34.3144C105.262 34.3732 105.262 34.4317 105.195 34.4906C104.828 34.755 104.228 35.0782 103.661 35.3721C103.551 35.4342 103.443 35.4937 103.34 35.5504L103.338 35.5517L103.334 35.5537C103.099 35.6835 102.889 35.7991 102.728 35.9007C102.453 36.0623 102.486 36.2237 102.519 36.385L102.522 36.4019L102.528 36.4295V36.4883C102.661 36.9584 103.128 37.8105 104.695 38.3394C104.762 38.3685 104.828 38.4273 104.828 38.4861C104.828 38.545 104.795 38.5744 104.729 38.6038C102.828 39.7495 102.028 40.4251 101.661 40.7777C101.061 41.3651 100.994 42.0117 100.994 42.2467C100.994 43.0985 101.527 44.3324 102.761 45.1551ZM124.735 26.3527C125.201 26.0588 125.835 25.912 126.535 25.912C129.703 25.912 131.871 28.4681 131.871 32.2872C131.871 34.2556 131.37 35.6656 130.403 36.371C129.77 36.841 129.036 37.076 128.103 37.076C124.968 37.076 122.767 34.3732 122.767 30.5244C122.767 28.4681 123.434 27.0577 124.735 26.3527ZM119.433 31.3765C119.433 34.8138 121.467 38.4861 127.136 38.4861C128.703 38.4861 130.603 37.869 131.704 37.2228C134.004 35.9301 135.205 33.8149 135.205 31.1415C135.205 27.2048 132.17 24.4725 127.836 24.4725C126.169 24.4725 124.301 24.9426 122.734 25.7944C120.533 27.1165 119.433 28.9675 119.433 31.3765ZM65.916 26.3527C66.383 26.0588 67.0163 25.912 67.7167 25.912C70.9176 25.912 73.0518 28.4681 73.0518 32.2872C73.0518 34.2556 72.5514 35.6656 71.5846 36.371C70.9509 36.841 70.2175 37.076 69.2838 37.076C66.1494 37.076 63.9487 34.3732 63.9487 30.5244C63.9487 28.4681 64.6157 27.0577 65.916 26.3527ZM60.6143 31.3765C60.6143 34.8138 62.6484 38.4861 68.3169 38.4861C69.9174 38.4861 71.8179 37.869 72.8849 37.2228C75.1857 35.9301 76.3861 33.8149 76.3861 31.1415C76.3861 27.2048 73.3519 24.4725 69.017 24.4725C67.3498 24.4725 65.4827 24.9426 63.9153 25.7944C61.7147 27.1165 60.6143 28.9675 60.6143 31.3765ZM30.1046 37.5167C30.0713 37.8399 30.138 38.1043 30.2048 38.1923C30.6047 38.1923 30.9716 38.1923 31.4383 38.2511C32.1053 38.2217 32.9389 38.1923 34.106 38.1923C35.1062 38.1923 36.0065 38.2217 36.7066 38.2511C36.9597 38.2511 37.1931 38.2597 37.407 38.2677C37.4903 38.2708 37.5707 38.2737 37.6481 38.276C37.7385 38.2787 37.8248 38.2805 37.9071 38.2805C38.0406 38.0455 38.074 37.3405 38.0072 37.164L37.407 37.076C37.1399 37.0525 36.9157 37.0101 36.7514 36.979L36.6842 36.9664L36.6402 36.9584C35.873 36.8116 35.7398 36.4001 35.7064 36.0477C35.673 34.902 35.673 32.2578 35.673 30.1426V28.4093C35.673 28.1448 35.8066 27.851 35.9732 27.7336C37.0401 27.0283 38.3407 26.5877 39.3743 26.5877C41.1416 26.5877 42.2419 27.4398 42.6419 29.1437C42.8752 30.2014 42.7754 34.4026 42.6753 35.8715C42.6419 36.5178 42.4419 36.7822 41.8751 36.929C41.5416 36.9878 41.2081 37.0466 40.8081 37.1054C40.6647 37.1054 40.5462 37.1269 40.41 37.1516L40.3414 37.164C40.2746 37.2228 40.2079 37.4284 40.2079 37.6928C40.2079 38.0161 40.2746 38.2217 40.308 38.2805C40.4503 38.2805 40.6351 38.2751 40.847 38.269C41.1313 38.2607 41.4643 38.2511 41.8083 38.2511C42.2087 38.2511 42.6489 38.2423 43.0474 38.2344L43.0499 38.2343H43.0518C43.3818 38.2277 43.683 38.2217 43.9091 38.2217C45.6097 38.2217 46.7768 38.2511 47.9105 38.2805C47.9436 38.2511 48.0103 38.1629 48.0437 37.9867C48.1438 37.6634 48.1438 37.2816 48.0771 37.164C47.6104 37.076 47.3103 37.0172 47.0101 36.9584L46.9839 36.9537L46.9298 36.9438L46.8523 36.9293C46.748 36.9096 46.644 36.89 46.51 36.8704C46.1432 36.7528 45.7095 36.606 45.7095 35.9595C45.6877 35.3463 45.6944 34.608 45.7016 33.8017V33.8011V33.8005C45.7055 33.3712 45.7095 32.9226 45.7095 32.4634V30.5538C45.7095 29.467 45.7095 28.7617 45.5763 28.1448V28.1154C45.5763 28.0272 45.6431 27.8804 45.7095 27.8216C46.9768 26.9698 48.2771 26.6759 49.1107 26.6759C51.3113 26.6759 52.3118 28.0566 52.5118 29.2317C52.6765 30.1758 52.6151 33.5726 52.5884 35.0519L52.5883 35.0543C52.5827 35.3693 52.5785 35.597 52.5785 35.6951C52.5452 36.4589 52.3786 36.7234 51.7116 36.8996C51.645 36.9156 51.5806 36.9316 51.5162 36.9476L51.5158 36.9477C51.2256 37.0199 50.9354 37.092 50.4443 37.164C50.3445 37.3405 50.3779 38.0455 50.4443 38.2805C51.4782 38.2217 52.5452 38.1923 54.6126 38.1923C55.6128 38.1923 56.5131 38.2217 57.1468 38.2511C57.48 38.2805 57.7801 38.2805 57.9804 38.2805C58.1136 38.1335 58.2471 37.3696 58.1803 37.164H58.1469L58.1291 37.1615L58.128 37.1613C57.3038 37.0453 56.6762 36.9568 56.213 36.7528C55.8461 36.6646 55.6128 36.1945 55.6128 36.0477C55.6128 35.7452 55.6195 35.3897 55.6269 34.9969V34.9964C55.636 34.5121 55.6462 33.9713 55.6462 33.4037C55.6796 32.2578 55.6796 30.9944 55.6796 30.025C55.6796 26.5877 53.8455 24.5605 50.7445 24.5605C49.4441 24.5605 47.4768 25.3538 45.5095 26.6759C45.4762 26.7347 45.3763 26.7639 45.3096 26.7639C45.2094 26.7639 45.1427 26.7347 45.0762 26.6465C44.1091 25.2364 42.8422 24.5605 41.2081 24.5605C40.2079 24.5605 38.274 25.0894 36.1401 26.5583C36.0733 26.5877 36.0065 26.6171 35.9398 26.6171C35.8066 26.6171 35.673 26.5288 35.673 26.4115C35.673 26.0297 35.7064 25.6476 35.7398 25.3244L35.7732 25.0014C35.7732 24.7664 35.673 24.5899 35.6063 24.5313C34.4726 24.972 31.6052 25.5888 30.5049 25.677C30.0713 25.7358 29.8713 25.9414 29.8713 26.1176C29.8379 26.2938 30.0379 26.4409 30.338 26.5288C31.1716 26.7347 31.8052 26.9992 32.3387 27.2927C32.7056 27.5277 32.7056 27.851 32.7056 28.1154V28.1743C32.7389 30.495 32.7389 33.8443 32.6388 35.6071C32.6054 36.3416 32.3387 36.6646 31.6717 36.8116L31.5606 36.8361C31.2006 36.916 30.8397 36.996 30.2048 37.076C30.1714 37.1346 30.1046 37.2816 30.1046 37.5167Z" fill="#58AA50"/>
</svg>
