<svg width="47" height="45" viewBox="0 0 47 45" fill="none" xmlns="http://www.w3.org/2000/svg">
<path d="M23.5 3.46875C22.9713 3.46875 22.4229 3.6 21.9725 3.84375L7.4025 11.9063C6.4625 12.4313 5.875 13.4063 5.875 14.4563V30.5438C5.875 31.5938 6.4625 32.5688 7.4025 33.0938L11.2213 35.1938C13.0817 36.0563 13.7083 36.075 14.57 36.075C17.3117 36.075 18.8979 34.4813 18.8979 31.7063V15.825C18.8979 15.6 18.7021 15.4125 18.4671 15.4125H16.6458C16.3913 15.4125 16.1954 15.6 16.1954 15.825V31.7063C16.1954 32.9438 14.8638 34.1625 12.7292 33.1313L8.71458 30.9375C8.64865 30.8929 8.59473 30.834 8.55728 30.7655C8.51982 30.697 8.4999 30.621 8.49917 30.5438V14.4563C8.49917 14.2875 8.5775 14.1375 8.71458 14.0625L23.2846 6.01875C23.4021 5.94375 23.5979 5.94375 23.7154 6.01875L38.2854 14.0625C38.4225 14.1375 38.5008 14.2875 38.5008 14.4563V30.5438C38.5008 30.6938 38.4225 30.8438 38.2854 30.9375L23.7154 38.9813C23.5979 39.0563 23.4021 39.0563 23.265 38.9813L19.5833 36.8438C19.4267 36.7875 19.27 36.7687 19.1721 36.825C18.1342 37.3875 17.9383 37.5 16.9788 37.7812C16.7438 37.8563 16.3717 37.9875 17.1158 38.3812L21.9725 41.1375C22.4425 41.4 22.9517 41.5312 23.5 41.5312C24.0483 41.5312 24.5575 41.4 25.0275 41.1375L39.5975 33.0938C40.5375 32.5688 41.125 31.5938 41.125 30.5438V14.4563C41.125 13.4063 40.5375 12.4313 39.5975 11.9063L25.0275 3.84375C24.5771 3.6 24.0483 3.46875 23.5 3.46875ZM27.4167 15C23.265 15 20.7779 16.6688 20.7779 19.4813C20.7779 22.5 23.2454 23.3813 27.2404 23.7563C31.9992 24.2063 32.3713 24.8813 32.3713 25.7812C32.3713 27.3375 31.0592 27.9938 28.0042 27.9938C24.1267 27.9938 23.3042 27.075 23.0104 25.2375C22.9898 25.1425 22.9358 25.0572 22.8574 24.9958C22.7789 24.9344 22.6809 24.9005 22.5796 24.9H20.6996C20.4646 24.9 20.2883 25.0688 20.2883 25.3125C20.2883 27.6375 21.62 30.45 28.0042 30.45C32.6063 30.45 35.25 28.7062 35.25 25.6688C35.25 22.65 33.135 21.8625 28.6504 21.2813C24.1267 20.7188 23.6763 20.4188 23.6763 19.4063C23.6763 18.5625 24.0679 17.4375 27.4167 17.4375C30.3542 17.4375 31.5096 18.0562 31.96 19.9875C31.9992 20.175 32.1754 20.3062 32.3713 20.3062H34.2708C34.3688 20.3062 34.4862 20.2688 34.5646 20.175C34.6429 20.1 34.7017 19.9875 34.6625 19.875C34.3883 16.5375 32.0775 15 27.4167 15Z" fill="#0FA958"/>
</svg>
