<svg width="45" height="44" viewBox="0 0 45 44" fill="none" xmlns="http://www.w3.org/2000/svg">
<path d="M22.5 17.6764C24.6558 17.6764 26.414 19.598 26.414 22C26.414 24.2876 24.6558 26.2321 22.5 26.2321C20.3442 26.2321 18.586 24.2876 18.586 22C18.586 19.598 20.3442 17.6764 22.5 17.6764ZM12.8093 40.3009C14.1279 41.1702 17.0163 39.8433 20.3442 36.4119C19.2558 35.0622 18.1884 33.5982 17.1837 32.0655C15.4971 31.8891 13.8203 31.6142 12.1605 31.2419C11.093 36.1374 11.4907 39.5002 12.8093 40.3009ZM14.2953 27.17L13.6884 26.0033C13.4581 26.6667 13.2279 27.3301 13.0814 27.9707C13.6465 28.1079 14.2744 28.2223 14.9233 28.3367L14.2953 27.17ZM27.9837 25.4314L29.6791 22L27.9837 18.5686C27.3558 17.3562 26.686 16.281 26.0791 15.2058C24.9488 15.1372 23.7558 15.1372 22.5 15.1372C21.2442 15.1372 20.0512 15.1372 18.9209 15.2058C18.314 16.281 17.6442 17.3562 17.0163 18.5686L15.3209 22L17.0163 25.4314C17.6442 26.6438 18.314 27.719 18.9209 28.7942C20.0512 28.8628 21.2442 28.8628 22.5 28.8628C23.7558 28.8628 24.9488 28.8628 26.0791 28.7942C26.686 27.719 27.3558 26.6438 27.9837 25.4314ZM22.5 10.0587C22.1023 10.562 21.6837 11.0881 21.2651 11.7058H23.7349C23.3163 11.0881 22.8977 10.562 22.5 10.0587ZM22.5 33.9413C22.8977 33.438 23.3163 32.9119 23.7349 32.2942H21.2651C21.6837 32.9119 22.1023 33.438 22.5 33.9413ZM32.1698 3.69914C30.8721 2.82985 27.9837 4.15666 24.6558 7.58807C25.7442 8.93776 26.8116 10.4018 27.8163 11.9345C29.5326 12.1175 31.2279 12.392 32.8395 12.7581C33.907 7.86258 33.5093 4.4998 32.1698 3.69914ZM30.7047 16.83L31.3116 17.9967C31.5419 17.3333 31.7721 16.6699 31.9186 16.0293C31.3535 15.8921 30.7256 15.7777 30.0767 15.6633L30.7047 16.83ZM33.7395 0.702371C36.8163 2.62396 37.1512 7.67957 35.8535 13.5816C41.1698 15.2973 45 18.1339 45 22C45 25.8661 41.1698 28.7027 35.8535 30.4184C37.1512 36.3204 36.8163 41.376 33.7395 43.2976C30.6837 45.2192 26.5186 43.0231 22.5 38.8368C18.4814 43.0231 14.3163 45.2192 11.2395 43.2976C8.18372 41.376 7.84884 36.3204 9.14651 30.4184C3.83023 28.7027 0 25.8661 0 22C0 18.1339 3.83023 15.2973 9.14651 13.5816C7.84884 7.67957 8.18372 2.62396 11.2395 0.702371C14.3163 -1.21922 18.4814 0.976884 22.5 5.16321C26.5186 0.976884 30.6837 -1.21922 33.7395 0.702371ZM33.1326 22C33.8442 23.7157 34.4721 25.4314 34.9953 27.17C39.3907 25.7288 41.8605 23.67 41.8605 22C41.8605 20.33 39.3907 18.2712 34.9953 16.83C34.4721 18.5686 33.8442 20.2843 33.1326 22ZM11.8674 22C11.1558 20.2843 10.5279 18.5686 10.0047 16.83C5.6093 18.2712 3.13953 20.33 3.13953 22C3.13953 23.67 5.6093 25.7288 10.0047 27.17C10.5279 25.4314 11.1558 23.7157 11.8674 22ZM30.7047 27.17L30.0767 28.3367C30.7256 28.2223 31.3535 28.1079 31.9186 27.9707C31.7721 27.3301 31.5419 26.6667 31.3116 26.0033L30.7047 27.17ZM24.6558 36.4119C27.9837 39.8433 30.8721 41.1702 32.1698 40.3009C33.5093 39.5002 33.907 36.1374 32.8395 31.2419C31.2279 31.608 29.5326 31.8825 27.8163 32.0655C26.8116 33.5982 25.7442 35.0622 24.6558 36.4119ZM14.2953 16.83L14.9233 15.6633C14.2744 15.7777 13.6465 15.8921 13.0814 16.0293C13.2279 16.6699 13.4581 17.3333 13.6884 17.9967L14.2953 16.83ZM20.3442 7.58807C17.0163 4.15666 14.1279 2.82985 12.8093 3.69914C11.4907 4.4998 11.093 7.86258 12.1605 12.7581C13.8203 12.3859 15.4971 12.1109 17.1837 11.9345C18.1884 10.4018 19.2558 8.93776 20.3442 7.58807Z" fill="#699BF7"/>
</svg>
