<svg width="51" height="42" viewBox="0 0 51 42" fill="none" xmlns="http://www.w3.org/2000/svg">
<path d="M12.75 14C14.45 4.66667 18.7 0 25.5 0C35.7 0 36.975 10.5 42.075 12.25C45.475 13.4167 48.45 11.6667 51 7C49.3 16.3333 45.05 21 38.25 21C28.05 21 26.775 10.5 21.675 8.75C18.275 7.58333 15.3 9.33333 12.75 14ZM0 35C1.7 25.6667 5.95 21 12.75 21C22.95 21 24.225 31.5 29.325 33.25C32.725 34.4167 35.7 32.6667 38.25 28C36.55 37.3333 32.3 42 25.5 42C15.3 42 14.025 31.5 8.925 29.75C5.525 28.5833 2.55 30.3333 0 35Z" fill="#44A8B3"/>
</svg>
