<svg width="66" height="64" viewBox="0 0 66 64" fill="none" xmlns="http://www.w3.org/2000/svg">
<g clip-path="url(#clip0_2271_139)">
<path d="M0.0751554 0.885869C-0.0620389 0.352618 0.453019 -0.123552 1.00283 0.0286642L17.0208 4.45578C17.1646 4.45546 17.3055 4.49446 17.427 4.56822L49.0178 13.2994C49.1485 13.3019 49.2777 13.3377 49.39 13.4022L65.409 17.8298C65.9593 17.982 66.1315 18.6492 65.7187 19.0302L17.3789 63.6694C16.9663 64.0504 16.2788 63.8596 16.1416 63.3259L8.12303 32.1631C8.11228 32.1311 8.10385 32.0984 8.09781 32.0652L0.0751554 0.885869ZM13.7961 48.2582L17.2762 61.783L27.756 52.1051L13.7961 48.2582ZM24.591 37.5626L14.4445 46.9513L27.9611 50.6766L24.591 37.5626ZM26.097 37.4622L29.4566 50.5348L39.5753 41.1908L26.097 37.4622ZM9.8628 32.9714L13.2371 46.0859L23.3714 36.7083L9.8628 32.9714ZM36.5562 26.478L26.2471 36.0177L39.9853 39.8181L36.5562 26.478ZM38.0008 26.1387L41.4299 39.4784L51.7673 29.9325L38.0008 26.1387ZM20.6054 22.0513L10.2741 31.5994L24.0376 35.4066L20.6054 22.0513ZM22.0443 21.6913L25.4147 34.8051L35.5611 25.4162L22.0443 21.6913ZM5.81467 17.2377L9.24452 30.5693L19.5683 21.0281L5.81467 17.2377ZM48.5925 15.3869L38.4461 24.7757L51.9627 28.501L48.5925 15.3869ZM50.0425 15.0682L53.4607 28.3688L63.7588 18.8592L50.0425 15.0682ZM32.5753 10.9895L22.4746 20.3243L35.9277 24.0316L32.5753 10.9895ZM34.017 10.6388L37.392 23.7685L47.5413 14.3768L34.017 10.6388ZM16.6134 6.54332L6.46692 15.9323L19.9835 19.6571L16.6134 6.54332ZM18.0646 6.22975L21.4265 19.3107L31.5483 9.95657L18.0646 6.22975ZM1.82728 1.74209L5.25662 15.0697L15.5583 5.53711L1.82728 1.74209Z" fill="#FFF4F4"/>
</g>
<defs>
<clipPath id="clip0_2271_139">
<rect width="66" height="64" fill="white"/>
</clipPath>
</defs>
</svg>
