<svg width="65" height="43" viewBox="0 0 65 43" fill="none" xmlns="http://www.w3.org/2000/svg">
<g clip-path="url(#clip0_2271_135)">
<path d="M21.7089 7.84463C21.7089 7.84463 19.3076 8.82611 19.3076 10.7858V20.5809C19.3076 20.5809 19.3076 22.5436 16.9063 21.5623C14.505 20.5811 14.505 18.6213 14.505 18.6213V8.82629C14.505 8.70392 14.5136 8.58477 14.5309 8.46849C14.7943 6.74437 16.902 5.88222 16.902 5.88222L12.104 3.92232C12.104 3.92232 12.0997 3.92232 12.0954 3.92536C11.9529 3.98341 9.70268 4.96489 9.70268 6.86334V16.6584C9.70268 16.6584 9.70268 18.6211 7.30112 17.6399C4.89982 16.6586 4.89982 14.6988 4.89982 14.6988V4.90379C4.89982 2.94407 7.30112 1.96277 7.30112 1.96277L2.50256 0C2.50256 0 0.101257 0.981296 0.101257 2.94102V12.7361C0.101257 12.7361 0.101257 18.6211 7.30087 21.5622C9.50803 22.4641 11.0368 22.5343 12.0994 22.2011C13.1618 23.4026 14.6908 24.5827 16.8977 25.4845C24.0973 28.4255 24.0973 22.5435 24.0973 22.5435V12.7484C24.0973 10.7857 26.4989 9.8074 26.4989 9.8074C25.7606 9.15022 25.1042 8.70374 24.5297 8.46831C24.0399 8.26765 23.0996 8.05963 21.7089 7.84463Z" fill="#808285"/>
<path d="M48.1023 24.5123C48.1023 18.7038 55.3019 21.5713 55.3019 21.5713L64.8988 25.4936V29.4161L55.3019 25.4936C55.3019 25.4936 55.2715 25.4813 55.2181 25.4621L55.1865 25.4512C54.7071 25.2853 52.9009 24.7732 52.9009 26.4782C52.9009 28.4377 55.3019 29.4192 55.3019 29.4192L60.1005 31.3787C60.1005 31.3787 64.8988 33.3415 64.8988 39.2235C64.8988 45.1056 57.6992 42.1644 57.6992 42.1644L48.1023 38.2421V34.3197L57.7035 38.2421C57.7035 38.2421 60.1048 39.2235 60.1048 37.2608C60.1048 35.301 57.7035 34.3197 57.7035 34.3197L55.3019 33.3384C55.1586 33.2777 48.1023 30.2629 48.1023 24.5123ZM40.9027 15.6896C42.3376 15.8063 43.3103 15.9691 43.8211 16.178C44.3767 16.4052 45.0031 16.8967 45.701 17.6522C45.701 17.6522 43.2997 18.6337 43.2997 20.5932L43.2994 30.4039C43.2931 30.7335 43.0835 36.1822 36.0998 33.3295C29.1164 30.4766 28.9065 24.8538 28.9005 24.519L28.9002 24.5034L33.6985 26.4662V26.4726C33.701 26.5971 33.7795 28.4588 36.0998 29.407C38.4277 30.3584 38.4991 28.5431 38.5011 28.4311V18.6307C38.5011 16.6709 40.9027 15.6896 40.9027 15.6896ZM28.9088 16.6923L33.7071 18.652V22.5743L28.9088 20.6147V16.6923Z" fill="#BCBEC0"/>
<path d="M55.3019 7.84463C53.0907 6.93984 51.1083 6.49945 49.4195 6.32225C48.9791 5.64052 47.8993 4.83947 45.7053 3.95295C38.5054 1.04257 31.3101 3.92249 31.3101 3.92249L21.7089 7.84445L26.5075 9.80418L36.1041 5.88186C36.1041 5.88186 38.5054 4.90039 40.9027 5.88186C43.304 6.86316 40.9027 7.84445 40.9027 7.84445L31.3058 11.7668L36.1041 13.7265L45.7096 9.80095C45.8521 9.74308 48.1757 8.85334 50.4993 9.80418C52.9006 10.7855 50.4993 11.7637 50.4993 11.7637L40.9027 15.6862L45.701 17.6488L57.6991 12.745C57.6991 12.745 62.4974 10.7855 55.3021 7.84445" fill="#F16822"/>
</g>
<defs>
<clipPath id="clip0_2271_135">
<rect width="65" height="43" fill="white"/>
</clipPath>
</defs>
</svg>
